<svg width="24" height="24" viewBox="0 0 24 24" fill="none" xmlns="http://www.w3.org/2000/svg">
<g clip-path="url(#clip0_57_6)">
<path d="M12 24C18.6274 24 24 18.6274 24 12C24 5.37258 18.6274 0 12 0C5.37258 0 0 5.37258 0 12C0 18.6274 5.37258 24 12 24Z" fill="#775AA1"/>
<path d="M4.04688 11.4092C5.74929 14.1258 8.82547 19.7483 11.0168 15.8646C10.9608 14.8568 10.2875 13.5175 12.0168 14.0303C13.1399 14.2249 13.5773 15.0318 14.2424 15.6353C15.6332 15.8039 17.8998 14.2622 17.5456 13.8086C14.1633 11.8896 16.305 10.8573 18.6387 11.2889C19.5828 11.4635 21.6137 10.691 23.4374 8.71572C23.0093 6.75515 21.6562 5.31998 20.5272 3.75757C18.231 1.5146 16.327 2.42688 15.8549 4.4921L11.5565 4.68241L15.5343 10.1066L11.9059 3.81469C4.10591 8.05227 4.50264 8.91212 4.04688 11.4092Z" fill="black"/>
<path d="M4.04684 11.4091C7.07633 2.99462 10.844 7.70884 15.5343 10.1066C17.4112 10.8737 21.9641 10.7681 23.4374 8.71571C23.2821 7.66791 20.3189 -1.31009 9.38941 0.204704C3.393 1.83069 3.13085 6.38881 4.04684 11.4091Z" fill="url(#paint0_linear_57_6)"/>
<path d="M12.2285 10.8057C11.8432 10.8215 11.5011 11.1106 11.8804 11.4061L11.8845 12.0199L8.73128 11.9677C8.43419 12.2594 8.44797 12.3991 8.76608 12.6196L10.5425 12.6397L10.5378 13.7628L7.90266 13.8317C6.63982 14.0811 7.02712 15.2604 8.12755 14.817C10.9273 13.9248 14.9288 14.5507 17.0181 15.1496C17.5983 14.8147 17.6398 14.2666 17.7035 13.7253L14.3924 13.7902L14.3937 12.6303L16.1822 12.6169L16.1728 12.0058L12.9313 12.0199C12.9201 11.7159 13.0131 11.3906 12.8222 11.1303C12.7068 10.8851 12.4597 10.7963 12.2285 10.8057ZM11.2901 12.6691H13.4239V13.7581H11.2901V12.6691Z" fill="#F9F9F9"/>
<path d="M9.40298 15.0506V18.7365C9.26041 19.0056 9.12924 19.2762 9.40298 19.5973H15.1919V15.0506H9.40298ZM10.7296 16.1041H14.0594V17.0063H10.7296V16.1041ZM10.7296 17.7854H14.0594V18.687H10.7296V17.7854Z" fill="#F9F9F9"/>
<path d="M11.2499 6.19276L4.77353 6.21753L4.63029 15.9608C4.39506 16.7687 4.12475 17.1876 3.2207 18.1857C3.47128 18.62 3.85671 19.0455 4.57474 19.3657C5.86574 18.8323 6.15818 17.4739 6.32702 16.0017L6.35714 11.0668L11.2111 11.0373L11.2499 6.19276ZM6.13493 7.02406H10.2941V8.1686H6.13493V7.02406ZM6.13961 9.02132H10.2994V10.1659H6.13961L6.13961 9.02132Z" fill="#F9F9F9"/>
<path d="M19.8726 6.19209L13.8012 6.23024L13.7275 10.801L18.5868 10.8198L18.6611 19.191C18.6457 19.5111 18.9962 19.7366 19.3063 19.7325C19.5898 19.7286 19.9308 19.5611 19.9121 19.2445L19.8726 6.19209ZM14.7804 6.84535H18.5741V8.01666H14.7804V6.84535ZM14.7744 8.94635H18.5795V9.8158H14.7744V8.94635Z" fill="#F9F9F9"/>
</g>
<defs>
<linearGradient id="paint0_linear_57_6" x1="20.6482" y1="4.55591" x2="24.5494" y2="17.5269" gradientUnits="userSpaceOnUse">
<stop stop-color="#FF0000"/>
<stop offset="1" stop-color="#FF0000" stop-opacity="0"/>
</linearGradient>
<clipPath id="clip0_57_6">
<rect width="24" height="24" fill="white"/>
</clipPath>
</defs>
</svg>
