<svg width="24" height="24" viewBox="0 0 24 24" fill="none" xmlns="http://www.w3.org/2000/svg">
<g clip-path="url(#clip0_58_22)">
<path d="M12.0099 24.2035C18.7414 24.2035 24.1984 18.7464 24.1984 12.0149C24.1984 5.28332 18.7414 -0.173691 12.0099 -0.173691C5.27829 -0.173691 -0.178711 5.28332 -0.178711 12.0149C-0.178711 18.7464 5.27829 24.2035 12.0099 24.2035Z" fill="#B5110C"/>
<path d="M12.0099 24.2035C18.7414 24.2035 24.1984 18.7464 24.1984 12.0149C24.1984 5.28332 18.7414 -0.173691 12.0099 -0.173691C5.27829 -0.173691 -0.178711 5.28332 -0.178711 12.0149C-0.178711 18.7464 5.27829 24.2035 12.0099 24.2035Z" fill="url(#paint0_radial_58_22)"/>
<path d="M2.33168 9.27366L9.595 9.25492L11.6978 2.31385L13.9601 9.21589L21.2112 9.07084L15.3461 13.3553L17.7248 20.2067L11.8376 15.9526L6.05657 20.3321L8.28324 13.4184L2.33168 9.27366Z" fill="#E0E907"/>
</g>
<defs>
<radialGradient id="paint0_radial_58_22" cx="0" cy="0" r="1" gradientUnits="userSpaceOnUse" gradientTransform="translate(5.09415 13.2128) rotate(-1.77079) scale(18.0471 18.9584)">
<stop stop-color="#F78807"/>
<stop offset="1" stop-color="#F78807" stop-opacity="0"/>
</radialGradient>
<clipPath id="clip0_58_22">
<rect width="24" height="24" fill="white"/>
</clipPath>
</defs>
</svg>
