<?xml version="1.0" encoding="UTF-8"?>
<svg width="125.3mm" height="106.02mm" version="1.1" viewBox="0 0 125.3 106.02" xmlns="http://www.w3.org/2000/svg" xmlns:xlink="http://www.w3.org/1999/xlink">
<defs>
<linearGradient id="b" x1="394.86" x2="394.86" y1="746.12" y2="797.84" gradientUnits="userSpaceOnUse">
<stop stop-color="#00838f" offset="0"/>
<stop stop-color="#00838f" stop-opacity="0" offset="1"/>
</linearGradient>
<linearGradient id="a" x1="397.77" x2="397.77" y1="873.37" y2="951.02" gradientUnits="userSpaceOnUse">
<stop stop-color="#00838f" offset="0"/>
<stop stop-color="#00838f" stop-opacity="0" offset="1"/>
</linearGradient>
</defs>
<g transform="translate(-475.34 -65.169)">
<path d="m514.48 103.58-0.85157 5.6738h-30.881l-7.4141 18.727 4.8008 8.2969h12.896l8.3223 9.2891 2.1504-7.9941 1.3926 4.209 1.4199 1.502-1.9473 11.846 2.8184 7.0703h35.229l0.53711 8.9902 12.115-12.945 11.176 9.6348 4.002-10.164-1.9258-11.711-1.791-1.4785 0.98633-3.4258-0.79297-4.8223h18.105l6.8555 4.3926h4.0644l4.8887-8.0566-3.9199-9.9004-0.0332-0.082-5.2949-13.377h-63.783l-2e-3 0.0762h-5.5781l-0.0449 0.53321zm9.7305 27.377 1.9531 2.2129h-3.9062z" fill="#718792" fill-opacity=".99608" style="inline-size:179.829;white-space:pre"/>
<path d="m537.98 83.35-46.904 8.4062 17.646 65.051 29.258 7.873 29.26-7.873 17.646-65.051z" fill="#718792" fill-opacity=".99608" stroke-width=".20874"/>
<path d="m529.16 65.17c-0.0716-1e-3 -0.15809-0.0013-0.26562 0.0059-1.1653 0.07844-2.4941 0.97461-2.4941 0.97461l-0.0176 0.01172-6e-3 0.0039-0.0508 0.02734-0.0508 0.0332c-2.255 1.4584-9.247 5.4153-14.387 14.367h-0.1211l-0.58203 1.0469 6e-3 0.0039c-3e-3 0.0063-8e-3 0.0093-0.0117 0.01563-1.0222 1.9059-0.62311 3.8879-0.45703 4.7676l2.2344 11.828 4.7812-9.7734c0.1964-0.1162 0.47764-0.26185 0.70898-0.38867l2.8691 7.0898 0.81446-1.4746 0.28125 0.69336c0.20202 0.49038 0.56397 0.83571 0.88476 1.2188l0.19922 0.47461c0.29185 0.68271 0.37267 1.2009 0.4082 2.0527l0.0234 0.50195 0.14453 0.47852c0.35402 1.1739 1.1819 1.8476 2.1094 2.3359 0.0906 0.57533 0.69091 3.2889 2.8144 4.5996 0.55041 1.021 1.729 3.2908 4.1055 3.9082l0.91992 0.24023 0.78516 1.5977 2.1738 0.24414c0.19381 0.022 0.37897 3e-3 0.57617-2e-3l1.4648 0.36524c2.7777 0.68936 5.5298 0.74024 8.3164-0.36914l-0.37305 0.10937 0.30859-0.0586s3.0402 0.13021 6.582-2.5352c1.3138-0.44007 2.5314-0.97926 3.5586-1.709 2.1189-0.82309 3.1271-3.053 3.127-3.0527 0.32256-0.40967 0.66411-0.85606 1.0039-1.332l-0.85938 0.68555c1.2535-0.52028 1.541-1.7227 1.541-1.7227l-0.10938 0.19141c0.5802-0.90256 1.1269-1.9272 1.5449-3.1074l-0.0957 0.22461 0.33594-0.66992c0.95503-1.917 1.2914-3.93 1.2578-5.9844 0.098-0.37447 0.18531-0.74932 0.22852-1.0977 0.0616-0.39725 0.0648-0.86026 0.0606-1.3008l0.0312-0.17773-0.0156-0.2793-4e-3 -0.05664c-0.0105-0.34902-0.0282-0.68745-0.0527-0.99805l-0.0762-0.95508 2e-3 0.04687c-0.12997-2.3521-0.21054-6.6497-4.5117-9.3984l-1.3652-0.87107c-0.38489-0.72306-0.90746-1.6056-1.0352-1.8926l-0.016-0.03516c-0.84758-1.8135-2.5836-2.5965-3.832-2.957l-1.6387-0.47266c-1.2875-0.84569-2.8362-1.5565-4.8809-1.7461-0.31518-0.02923-0.64411-0.03903-0.97461-0.04297-0.31603-0.49173-0.71688-1.2566-0.79492-1.3691l-0.26953-0.39258-0.12695-0.12695c-0.45189-0.4553-1.0474-0.9514-1.9531-1.2656l-0.78125-0.27148-0.74609 0.35938c-0.33839 0.16359-1.2336 0.45229-2.2168 1.207-0.77826 0.25702-3.995 0.62555-5.7773 2.2852-0.58861 0.14115-1.3191 0.36827-2.1582 0.66992-9e-3 -0.32378-0.0373-0.64961-0.0332-0.96094 0.0948-0.17074 0.39241-0.60112 0.31836-1.6973-0.1592-2.3428-1.3198-4.0696-3.3281-4.1211h-6e-3zm36.229 26.82c-2e-3 0.01015-3.3e-4 0.02315-2e-3 0.0332l0.0117-0.08203c-2e-3 0.01539-8e-3 0.03336-0.01 0.04883zm-19.25-2.0254c0.0167 0.03187 0.0358 0.05539 0.0527 0.08594l0.19141 0.53906c0.35828 1.0137 1.6518 3.4196 4.1699 3.7207 1.072 0.59275 2.2344 0.78242 2.4707 0.82031l0.28321 0.04297c-0.17879 0.23583-0.36527 0.48791-0.64258 0.83984-0.77532 0.49735-1.6104 0.94366-2.5664 1.3223l-0.0391 0.01562-0.0391 0.01758c-0.28643 0.12772-0.98385 0.40953-1.6562 0.80664-0.30197 0.10266-0.57786 0.16952-0.84375 0.21875-0.63843-0.04619-1.168-0.0152-1.5684 0.08398l-1.627-0.0059c-0.0209-0.0053-0.0432-0.01025-0.0645-0.01563-0.22283-0.16962-0.42988-0.34092-0.68359-0.48438l-0.3143-0.17964-0.25977-0.041016-0.50195-0.53906c-1e-3 -0.13811 0.0157-0.28029 0.01-0.41602l-0.0449-1.0977-0.29883-0.4668-0.0801-1.5488c0.23128-0.7066 0.3609-1.4776 0.19532-2.3047l0.0351-0.0098-0.0195-0.08984z" fill="#718792" fill-opacity=".99608"/>
<path d="m493.58 93.34 44.404-7.9602 44.404 7.9602-16.774 61.834-27.63 7.4348-27.63-7.4348z" fill="#005561" fill-opacity=".99608" stroke-width=".20874"/>
<path d="m540.79 88.414c11.519 3.979 21.048 7.3451 31.688 11.138-4.4556 16.425-8.9112 32.85-13.367 49.275-5.9389 3.3572-12.945 6.8888-19.876 10.808 7.9177-2.1309 15.836-4.2617 23.753-6.3925 5.2471-19.343 10.494-38.686 15.741-58.029-12.646-2.2668-25.293-4.5334-37.939-6.8002z" fill="#2097a3" stroke-width=".20874"/>
<path d="m533.95 88.384c-12.703 2.2769-25.406 4.5538-38.11 6.8308 5.2471 19.343 10.494 38.686 15.742 58.029 7.7266 2.0793 15.453 4.1583 23.18 6.2376-6.8864-3.4571-13.36-6.825-19.303-10.653l-13.367-49.275c10.696-3.8987 20.466-7.1455 31.858-11.169z" fill="#4fb3bf" stroke-width=".20874"/>
<path d="m515.93 107.4-0.57762 3.8508h-31.244l-6.5569 16.562 3.7387 6.4607h12.635l6.4567 7.2071 1.9386-7.2071h2.2023l2.1338 6.4541 1.7935 1.899-2.0151 12.275 2.1087 5.2949h35.757l0.3719 6.2259 10.248-10.951 10.496 9.0481 2.7668-7.0264-1.7144-10.429-2.2248-1.8344 1.2252-4.2544-1.1025-6.702h19.507l0.35211-0.75961 8.0432 5.1538h2.354l3.7888-6.2457-3.3431-8.4428-0.9482-0.58817 0.40354-0.78731-4.4957-11.353h-60.474l-3e-3 0.0765h-5.6852l-0.211 2.5466zm8.2819 25.52 4e-3 0.0317h-8e-3z" fill="#005662" fill-opacity=".99608" style="inline-size:179.829;white-space:pre"/>
<g transform="matrix(.67521 0 0 .67521 465.44 -15.239)" style="inline-size:179.829;white-space:pre">
<path d="m77.678 189.28-3.3635 22.397h7.9032l0.99019-8.7766 7.994 7.0079 5.5178-4.3022 0.64524-14.156h-7.1476l-0.64646 7.7944zm-47.308 2.0567-7.999 20.201h7.8974l5.2615-14.672h1.4699l-5.1519 14.672h7.898l4.6038-14.672h1.4699l-4.4942 14.672 6.0738 6.7801 7.2569-26.981zm25.715 0-5.2824 20.201h22.114l3.1694-20.201zm42.727 0-0.47943 12.601h13.705l0.0358 1.2289h-13.788l-8.1398 6.371h30.011l-0.90027-13.527h-13.306l8.5e-4 -1.1444h13.229l-0.0422-0.6338-5.1612-4.8956zm16.102 0 5.8564 5.5294h5.8795l1.5334 14.672 8.8599 6.7801-3.0433-21.452h5.8795l-0.11558-0.67298-5.6809-4.8564zm20.119 0 6.2667 5.3345 2.6634 14.867h22.113l-1.8077-6.371h-13.788l-0.26605-1.2289h13.705l-1.6819-5.9276h-13.306l-0.24777-1.1444h13.229l-0.215-0.75776-6.1555-4.7716zm21.551 0 6.7336 5.1979 4.3716 15.003h7.8974l-1.6692-5.0776 18.505 11.858h0.0653l-3.7327-9.4267-7.9912-4.9532h6.0299l-4.9897-12.601zm-94.595 5.5294h5.8795l-1.6124 8.3008h-6.1276zm108.77 0h5.8801l0.41038 1.1444h-5.9143zm-77.119 15.184 2.6749 2.3451 0.1069-2.3451zm25.616 8.4735 0.63325 10.595 6.4473 5.5575-5.7666 5.8315 0.7696 12.876 11.922-12.738 14.778 12.738-2.1164-12.876-7.0736-5.8315 5.2017-5.5575-1.7414-10.595-10.354 10.47zm-56.487 2.9518 7.1565 7.5805h13.803l-1.1152 11.521h-7.2462l1.2596-9.9426h-8.6854l-3.1006 18.902h26.297l1.2805-21.542-4.8544-6.5182zm25.894 0 5.3635 7.1548-1.0933 20.906h26.298l-0.46856-8.9591h-16.303l0.0257-1.7156h16.188l-0.43026-8.227h-15.634l0.0236-1.5782h15.528l-0.39646-7.5805z" fill="#4fb3bf" stroke-width=".49221"/>
<path transform="scale(.26458)" d="m319.69 875.29c-1.4508 14.972-2.9007 29.944-4.3516 44.916h-34.334c1.5871-12.527 3.1746-25.053 4.7617-37.58h-26.072l-10.607 64.635h92.178c1.4265-23.99 2.8529-47.98 4.2793-71.971zm38.918 0-3.7695 71.971h92.23l-1.418-27.055h-61.846c0.0664-4.4292 0.13278-8.858 0.19922-13.287h60.959l-1.2754-24.293h-59.322c0.0367-2.4452 0.0728-4.8906 0.10937-7.3359zm101.81 0c7.3549 6.3378 14.709 12.676 22.064 19.014-7.7633 7.8519-15.528 15.703-23.291 23.555 0.78247 13.083 1.5652 26.167 2.3476 39.25 13.962-14.919 27.923-29.837 41.885-44.756l51.223 44.158c-2.0915-12.717-4.1819-25.434-6.2734-38.15-9.5128-7.8469-19.026-15.692-28.539-23.539 6.0944-6.5102 12.189-13.021 18.283-19.531h-36.84c-0.7682 0.77673-1.5365 1.5534-2.3047 2.3301l-2.8281-2.3301z" fill="url(#a)" stroke-width="1.8603"/>
<path transform="scale(.26458)" d="m109.34 746.12c-6.5948 16.656-13.191 33.312-19.785 49.969h22.441c5.9764-16.656 11.953-33.312 17.93-49.969zm33.377 0c-5.8479 16.656-11.697 33.312-17.545 49.969h22.545c5.2291-16.656 10.458-33.312 15.688-49.969zm33.375 0c-5.3638 17.513-10.728 35.026-16.092 52.539 5.8292 6.5084 11.659 13.017 17.488 19.525 6.4609-24.021 12.922-48.043 19.383-72.064zm33.389 0-13.064 49.969h76.262c2.6148-16.656 5.2288-33.313 7.8438-49.969h-20.953c-2.1162 10.901-4.2335 21.802-6.3496 32.703h-30.221c2.4449-10.901 4.8892-21.802 7.334-32.703zm82.926 0c-2.5288 16.834-5.0574 33.668-7.5859 50.502h22.877c1.378-12.207 2.7568-24.416 4.1348-36.623 10.999 9.6408 21.997 19.281 32.996 28.922 5.7997-4.5227 11.599-9.0438 17.398-13.566l1.334-29.234h-21.041c-0.37944 4.5776-0.75937 9.1551-1.1387 13.732l-16.391-13.732zm83.576 0c-0.26858 7.0821-0.53771 14.164-0.80665 21.246h51.576c0.10809 3.8189 0.21613 7.6381 0.32421 11.457h-54.434c-7.3573 5.7554-14.715 11.51-22.072 17.266h99.922c-0.98181-14.774-1.9635-29.547-2.9453-44.32h-50.521l0.0117-5.6484zm106.32 0c1.795 17.185 3.5897 34.371 5.3848 51.557l25.734 19.695c-3.3727-23.75-6.7464-47.501-10.119-71.252zm55.691 0 8.9551 49.969h76.234c-1.6338-5.7554-3.2685-11.51-4.9023-17.266h-52.285c-0.82431-3.8189-1.6503-7.6381-2.4746-11.457h51.504c-1.4739-5.1993-2.948-10.398-4.4219-15.598h-50.469c-0.40603-1.8827-0.8124-3.7656-1.2188-5.6484zm83.771 0c4.855 16.656 9.7097 33.313 14.564 49.969h22.596c-2.6108-7.9355-5.2213-15.871-7.832-23.807l69.449 44.498c-3.2973-8.3292-6.5953-16.657-9.8926-24.986-13.132-8.1422-26.264-16.286-39.396-24.428h29.727l-8.4141-21.246h-20.586c0.676 1.8828 1.3515 3.7658 2.0273 5.6484h-29.654c-0.61718-1.8827-1.2344-3.7656-1.8516-5.6484z" fill="url(#b)" stroke-width="1.8603"/>
</g>
<g transform="translate(.70408)">
<path d="m528.45 67.17c-0.0435-1e-3 -0.087-3.15e-4 -0.13075 0.0026-0.70224 0.04727-1.4194 0.58492-1.6051 0.69557l-0.0315 0.01963-0.031 0.01912c-2.6188 1.6936-9.5683 5.4847-14.42 14.694-0.66712 1.24-0.41867 2.5841-0.25423 3.4551l1.1172 5.9159 2.4118-4.932c0.8204-0.52586 2.0875-1.1655 3.2406-1.7772l2.1368 5.2756 2.5626-4.6467 0.85111 1.247c-0.39267 1.4961-0.75838 3.2197-0.89244 5.6281l-0.0253 0.4532 0.17208 0.42013c0.18244 0.44286 0.47684 0.83731 0.86609 1.1829l0.20773 0.48679c0.44675 1.0451 0.52697 1.8026 0.56639 2.7482l0.0103 0.25218 0.0739 0.24185c0.23518 0.77982 0.90217 1.2837 1.8536 1.5441l-0.016 0.0124c0.29408 0.54691 0.66048 4.238 2.696 4.6297 0.54925 0.97612 1.3938 2.86 3.0877 3.3001l0.53692 0.14056 0.46974-0.13901 0.17105 0.1726c0.52793 0.53278 0.85162 0.75189 0.85162 0.75189l0.48059 0.98237 1.0878 0.12299c0.17938 0.0204 0.39666 0.0126 0.62682-9e-3l1.6717 0.41548c2.462 0.61102 4.8052 0.62681 7.0936-0.28422l0.30285-0.0574c0.504-0.0955 2.8044 0.12536 5.8668-2.235 1.3783-0.39757 2.549-0.98042 3.5553-1.7053 1.6939-0.28443 2.282-2.1654 2.6463-2.6283 0.31215-0.39646 0.63307-0.81556 0.94879-1.2578 0.35627-0.14787 0.42622-0.58246 0.51729-0.76533 0.51567-0.80218 0.98703-1.6897 1.3426-2.6934l0.33382-0.67024c0.83892-1.6839 1.1552-3.4901 1.078-5.3878 0.10964-0.35408 0.17759-0.71955 0.22117-1.0852v-5.18e-4c0.053-0.32793 0.0701-0.79151 0.0527-1.249-1.6e-4 -0.01011 1.8e-4 -0.0204 0-0.03049l7e-3 -0.03411-7e-3 -0.10439c-9e-3 -0.33278-0.0262-0.65569-0.0496-0.95188l-0.076-0.95446c-0.13232-2.3945-0.25345-5.6897-3.592-7.8233l-1.6619-1.0625c-0.1-0.15704-0.20579-0.30371-0.32247-0.42943-0.35759-0.68972-0.95502-1.6655-1.1689-2.1461-0.49818-1.0659-1.5736-1.5945-2.573-1.8831l0.0573 1.1353c-1.3027-1.3929-3.2043-3.0056-6.2079-3.284-0.31813-0.0295-0.64447-0.04368-0.97877-0.04186-0.29533 0.0016-0.5992 0.01961-0.90794 0.04651-0.38365-1.0296-1.0862-1.9017-1.3456-2.2758l-0.16848-0.24288c-0.32163-0.32406-0.68543-0.61091-1.1901-0.786-0.61428 0.29696-1.1362 0.36356-1.9415 1.0201-0.0511 0.05696-0.0972 0.11404-0.14726 0.17105-1.2316 0.54431-4.8259 0.65292-5.795 2.2107l-0.0765 0.12144c-1.0248 0.26289-2.4373 0.5161-3.6908 1.2573-0.19013-0.14328-0.40719-0.27323-0.65474-0.38499l-0.65214-0.29456c-0.0942-0.98775-0.12838-2.0445-0.10541-2.9962 3e-3 -0.0045 5e-3 -0.0074 8e-3 -0.01188 0.0281-0.04654 0.0868-0.14953 0.13126-0.24598 0.0494-0.10717 0.22919-0.44768 0.19122-1.0098-0.11822-1.7397-0.72951-2.2379-1.3839-2.2546zm-16.217 15.423-0.01 0.01912c3e-3 -0.0046 5e-3 -0.0068 8e-3 -0.01137 0-0.0026-5e-5 -0.0052 3e-3 -0.0078zm34.373 4.8535c0.19267 0.31233 0.31306 0.60414 0.37515 0.98444l0.0471 0.27905 0.12091 0.2558c0.0754 0.15898 0.16071 0.2934 0.25064 0.41548l-0.0103 0.06925 0.16795 0.47439c0.29533 0.83563 1.2206 2.7729 3.0572 2.5259 0.0452 0.02737 0.0891 0.05737 0.13486 0.08372v0.02274c0.74547 0.44691 1.5331 0.54209 1.8712 0.59634l0.53898 0.08578 0.51004-0.19947c1.1634-0.45735 2.1066-1.3988 2.8293-2.5942l-0.11525 0.88728-0.50022 1.6531-0.68935 1.2723-0.0827 0.3452-0.10078 0.1912-0.33589 0.93741c-0.31001 0.50441-0.76539 1.0169-1.3291 1.7513l-0.061 0.07958c-0.9616 0.6429-2.0126 1.1762-3.1621 1.6314-0.57933 0.25833-1.5544 0.48616-1.8164 0.87126-0.41904 0.14298-0.83288 0.25381-1.2459 0.32349-0.6313-0.1678-1.1816-0.0405-1.65 0.0889l-2.0453-5e-3c-0.20421-0.051-0.42344-0.10761-0.66096-0.16588-0.26842-0.20989-0.53284-0.42987-0.8227-0.59376l-0.58237-0.09147c-4e-3 -0.0038-6e-3 -8e-3 -0.0104-0.01189-0.0238-0.02537-0.0493-0.05134-0.076-0.0801-0.0303-0.03263-0.061-0.06645-0.0935-0.1018-0.0362-0.03928-0.0748-0.08116-0.11369-0.12299l-0.15089 0.09043c-0.38568-0.33312-0.71662-0.78122-1.0759-1.17l-6e-3 -0.0124c0.0403-0.43695 0.0478-0.88761 0.0284-1.3317l-0.0238-0.56069-0.29247-0.45992-0.11163-2.1766-0.0941-0.0067c0.3238-0.61659 0.4948-1.3104 0.34211-1.9642 0.0108 0.03187 0.0227 0.0604 0.0331 0.09302l-0.0548-0.2434c8e-3 0.02416-5e-3 0.05011 3e-3 0.07441-0.12695-0.69449-0.32497-1.2318-0.49197-1.5989l0.014-0.03152z" fill="#005460" fill-opacity=".99608" opacity=".97764"/>
<path d="m554.27 77.336c0.30676 0.53042 0.50265 1.0713 0.54676 1.6265-0.19193 1.2846-1.4644 1.0322-1.669 2.046-0.28754-0.40643-0.4409-0.90508-0.4947-1.4721 0.84939-1.3383 1.3022-0.57457 1.617-2.2004z" fill="#00838f"/>
<path d="m548.73 82.381c-0.10594-0.93985 0.36956-1.5291 1.3643-1.9137-0.30651-0.28489-1.0212 0.24519-1.5003 0.34727-0.11052-0.29156-0.23636-0.60764 0.78421-1.0987-0.66193-0.2288-1.3543 0.6659-1.5717 0.51357-0.30549-0.15797 0.14787-0.76838 0.31964-1.2109-0.28357-0.07081-0.89818 0.91664-1.5943 0.97693-0.31219-0.09541-0.2239-0.60592 0.0775-1.4323-0.59703 0.18633-0.82508 1.0751-1.3241 1.3093-0.30997-0.13149-0.31896-0.76975-0.0212-1.3091-0.57865 0.01577-0.80697 1.4458-1.2784 1.4766-0.40383 0.03937-0.39305-0.68884-0.33301-1.5083-0.24946 0.33026-0.98712 0.92494-0.50046 1.8811 0.42541 1.036 3.7284-1.3709 5.5778 1.9682z" fill="#4fb3bf"/>
<path d="m543.41 74.56c0.48445-0.64803-0.5927-2.0347-1.1266-2.8045-1.5152 1.6431-2.2423 2.9972-2.2883 3.4326-0.58733 3.4925-0.12766 6.1725 2.0638 7.337 0.82711-0.18501 1.161-0.74567 1.4326-1.2279-2.3289 0.72974-2.6782-3.6518-1.9533-6.2431 0.22873-0.25133 0.82668-1.0327 1.3316-1.0115 0.20601 0.0087 0.39656 0.15095 0.54021 0.51737z" fill="#c4c4c4"/>
<path d="m540.71 72.761c-1.3384 0.72721-3.9726 0.71645-4.3258 1.2841-1.3432 3.7747 2.4283 11.133 3.8429 9.7269 0.22863-0.23792 0.1927-0.64829 0.22334-1.005-0.94263 1.5157-6.016-8.1154-0.31339-9.1865z" fill="#c4c4c4"/>
<path d="m525.56 72.945c0.11016 1.3898 0.0855 2.8482 1.1333 3.7613l-2.3582 2.0941c0.17002-1.2904 1.0446-3.2966 0.39972-3.7592-1.4306 1.2513-2.235 1.4108-5.9236 6.5982 0.78807-0.59346 1.5559-1.2225 2.4468-1.6349l0.0526 3.0678c0.87164-1.2581 1.3139-2.7072 1.8514-4.1139l1.4276 2.7441c0.55391-1.119 1.2284-2.7565 1.5986-3.0856 0.33731-0.31245 0.72412-0.39312 1.012-0.19662 0.27206 0.2243 0.48097 0.93236 0.19019 1.393-0.25274 0.29848-0.5697 0.25837-0.82244 0.25244 0.29303-0.24313 0.599-0.74124 0.18856-0.8641-0.25103-0.06027-0.40437 0.07395-0.52776 0.26788-0.19374 0.2337-0.53998 4.0965-0.64895 5.9873l-2.3054-3.3763-2.1055 3.8147-1.4175-3.5011c-1.671 0.90956-3.1353 1.9078-4.4414 2.9741 2.5356-5.8266 6.096-9.6925 10.25-12.423z" fill="#00838f"/>
<path d="m555.02 79.46c0.20099 0.7238 0.13246 1.1499 0.0746 1.5878-1.0741 1.7673-1.5038 0.75387-1.8184 1.5204-0.0663-0.41868-0.13053-0.83703 0.0602-1.2138 0.0769-0.41778 1.5195-0.64236 1.6837-1.8944z" fill="#4fb3bf"/>
<path d="m552.9 78.648c-1.0053 0.63379-1.9053 1.4016-1.9912 3.2058-0.44693-3.4007-3.8597-5.4257-8.135-3.5093-0.089-1.3461 0.0213-2.5682 0.67007-3.1028 5.4777-1.4405 7.6657 1.3739 9.4561 3.4063z" fill="#c4c4c4"/>
<path d="m535.66 74.893c-1.6322 0.51182-3.5234 0.64613-4.6202 1.9385-0.67063 1.5941 1.7568 4.9421 3.4335 7.395l1.7321 0.29593c-0.26282-0.75697-3.565-4.0329-3.6379-6.7126-0.0262-0.96828 1.3549-1.7237 3.0925-2.9168z" fill="#c4c4c4"/>
<path d="m529.44 75.806c0.11238 0.47649 0.0403 0.9144-0.26598 0.93836-2.0371 0.04534-1.7697-3.4575-1.7385-5.5159-0.76061 0.2103-0.99297-0.27052-1.1682-0.82604-2.8332 1.8323-7.7432 4.5294-12.275 13.141-0.27398 0.50616-0.19415 1.3732-0.0493 2.1405 2.9905-6.1138 6.747-10.567 11.913-13.826 0.76345 2.027 0.55007 4.8669 2.6657 5.8056 1.3222 0.35184 1.9099-1.4098 0.91799-1.8577z" fill="#c4c4c4"/>
<path d="m529.67 78.534c-0.83965 0.95281-3.5244 4.272-3.4679 4.8247 0.28498 1.191 3.9285 4.7309 5.5184 5.2365 0.48713-0.11031 0.80691-0.63638 1.2624-0.99269-1.8081-1.0462-4.5626-3.456-4.7437-4.2282-0.0484-0.38836 0.74455-2.7612 1.4308-4.8403z" fill="#c4c4c4"/>
<path d="m555.59 80.426c1.1328 1.2205 1.0206 9.31-2.6484 10.752-0.48211-0.07737-0.98857-0.12029-1.324-0.40507 0.93626-0.97353 0.44611-1.4094-0.32707-1.7387 0.24005-0.4541 0.45676-1.3742-0.35667-1.7033-0.78988-0.31951-1.3133 0.42651-1.1299 1.0408-0.3676-0.0095-0.72928-0.02324-0.84406-0.26514-0.21654-1.3258-0.88556-2.1002-1.5222-2.9142-0.19402-0.73275-0.3638-1.4273-0.21886-1.6264l0.58721 0.70491 1.3522 0.46905 0.15121-2.611 1.4417 1.6075c0.55318-1.0799 0.87707-2.0128 1.0965-2.8788 6.7e-4 0.24645 0.20686 0.49292 0.41693 0.73938l0.15573 3.1854-0.61863 1.1119-0.0566-2.4437c-0.40181 0.27093-0.64388 0.9891-0.91555 1.6244l-1.0729-1.425-0.13205 1.9586-1.0923-0.45341 1.0167 1.9112c0.52573-0.59379 1.2446-0.59441 1.9944-0.16661 0.73644 0.53409 0.69788 1.091 0.53154 1.7957 0.61939 0.25318 0.61817 0.90826 0.70833 1.5042 2.5152-2.5995 2.4697-5.6156 2.4822-7.0143-0.31342 0.14982-0.4617 0.42378-0.97199 0.42565-0.20663-0.04387-0.3473 0.0014-0.76062-0.3226l-0.47723 0.43828 0.32828-0.77657c1.3385-0.25643 2.2886-0.88957 2.2061-2.5245z" fill="#c4c4c4"/>
<path d="m526.69 85.991c-0.54572 1.9522-1.1142 3.8381-1.2839 6.8881 0.5823 1.4135 5.1412 2.5554 11.351 0.75184 0.43681-0.15049 0.99444-1.2859 0.93747-1.4673-0.16279-1.1998-0.43668-1.3223-0.67448-1.7947-0.0124 0.6392 0.0363 1.3767-0.11052 1.8595-0.85837 1.8107-8.4402 1.152-9.8271-0.39044-0.62315-1.3727-0.3644-3.7776-0.39234-5.847z" fill="#c4c4c4"/>
<path d="m535.79 89.628 1.5477-0.52457-0.24397 0.55939z" fill="#c4c4c4"/>
<path d="m535.15 85.083c1.8795 0.44244 0.49422 1.8681 0.43925 3.0737l4.9323-1.4574c-0.36446-0.30766-0.79061-0.55011-0.69526-1.3207l-1.8395 0.23217c-0.0247 0.14787-0.0741 0.34556 0.0443 0.4929 0.13422 0.14613 0.58494 0.2638 0.87742 0.39569l-1.7467 0.29182c0.25217-0.5361 0.36291-1.0943-0.0418-1.7332l3.8075-0.49348c-0.63372 0.91598-0.33082 1.9409 0.84786 2.4236l-5.9143 2.0254c-0.88826-0.06943-1.7589-0.21652-2.5809-0.57869 0.30746-0.31207 3.4463-2.4836 1.87-3.3519z" fill="#c4c4c4"/>
<path d="m526.47 94.523 0.99334 0.53508c0.18818 0.66292 0.23708 1.396 0.70968 1.9157 0.46046 0.32685 8.6684-0.47997 9.205-3.1862l0.0913 1.7737c-5.3581 3.2159-10.112 2.9529-10.275 2.4128-0.0415-0.99544-0.10817-2.0103-0.72407-3.4511z" fill="#c4c4c4"/>
<path d="m528.96 99.625c0.6431 1.089 0.79364 3.4165 1.4174 3.189 1.6366 0.01 4.6478-1.2178 7.0741-3.2359 0.20441-0.40564 0.29561-1.0414 0.25423-1.9038l-0.85077-1.2153c-0.31149 0.84235 0.26769 1.588-0.0833 2.2622-0.63446 0.8638-4.8744 2.3427-6.2069 2.2844z" fill="#c4c4c4"/>
<path d="m538.21 98.826c0.39472 0.38955 0.76826 0.86207 1.2127 1.0567-1.1721 1.1528-1.6484 2.6795-2.3064 4.1086-0.98358 1.1831-2.3204 1.6989-3.7117 2.1119-0.78568-0.20412-1.3324-1.4782-1.9345-2.5044l0.53928 0.29604c0.20253 0.21727 0.50141 0.66005 0.60758 0.6518 0.42138-0.25673 5.1557-1.6874 5.8477-4.7678 0.0136-0.31407-0.15336-0.6347-0.25461-0.95295z" fill="#c4c4c4"/>
<path d="m535.5 106.8c0.53546 0.0801 1.1409 0.29522 1.5697 0.16937 0.83309-0.85517 1.7681-2.8429 2.7619-5.4839l-0.28658-0.82322c0.36036 0.38768 0.7317 0.81884 1.005 0.86168-0.55224 2.1041-0.57549 4.4753-2.1293 6.0736-0.19252 0.17496-1.2249 0.53472-1.694 0.4813-0.11609-0.23679-0.78018-0.82819-1.2266-1.2788z" fill="#c4c4c4"/>
<path d="m541.41 102.07c-0.1109 0.19142-0.30603 0.32206-0.50634 0.44907 0.34609 2.1082-0.20675 4.1129-1.6237 6.0181 2.2011 0.54628 4.1876 0.51141 6.0231-0.26176 0.61305-1.3208 0.34371-3.6824 0.0532-5.703-1.0917 0.30208-2.5817-0.23173-3.9462-0.5024zm0.99785 1.3546c0.64406 0.12178 1.2881 0.3177 1.9321 0.6667 0.16185 1.2069 0.14333 2.3663-0.21559 3.436-0.84951 0.12889-1.7244 0.19291-2.6895 0.0262 0.87873-1.1534 0.73872-2.7164 0.97296-4.1289z" fill="#4fb3bf"/>
<path d="m550.3 101.42c-1.3569 0.62913-2.7681 1.0664-4.3042 1.0628 0.92193 3.112 0.20246 4.1123-0.17195 5.6894 1.414-0.26779 2.5398 0.11213 5.1418-1.9478-1e-3 -1.5181 0.0771-3.2445-0.66569-4.8044zm-0.61167 1.4192c0.29258 0.93728 0.11411 2.0725 0.20043 2.9726-0.64127 0.5647-1.387 0.73768-2.4986 1.0759 0.0995-1.0268 0.4102-1.7038 0.0542-3.4852 0.83499 0.0158 1.5423-0.26725 2.244-0.56327z" fill="#4fb3bf"/>
<path d="m554.57 99.113c-1.1507 0.79182-2.3918 1.4187-3.7122 1.9417 0.8251 2.0541 0.81967 3.3938 0.61542 4.9303 2.1878-0.62468 3.7278-1.7731 4.8575-3.2528-0.42982-1.226-0.87034-2.4596-1.7607-3.6192zm-0.37802 1.2697c0.39472 0.79949 0.73424 1.6096 0.87959 2.4569-0.32728 0.64723-1.4031 1.1089-2.2698 1.6223 0.36986-0.86284-0.28436-1.9784-0.48009-2.9808z" fill="#4fb3bf"/>
<path d="m557 95.333c-0.3225 1.3492-1.256 2.3199-2.0618 3.3697 0.64239 1.2112 1.4498 2.4303 1.7561 3.6255 1.0909-1.3855 2.1305-2.8127 2.6643-4.6508-0.35685-0.70815-0.90832-1.4495-2.3586-2.3444zm0.18049 1.4152 1.2636 1.6511-1.1841 2.0197c-0.22351-0.80633-0.79478-1.2661-1.224-1.8674 0.46683-0.58911 0.87019-1.1872 1.1446-1.8035z" fill="#4fb3bf"/>
<path d="m558.32 91.959c-0.13108 1.0083-0.6038 1.9974-1.1246 2.9839 0.98316 0.59382 2.0086 1.143 2.417 2.3422 0.67277-1.3505 0.94423-2.8515 0.868-4.4829-0.62345-0.47937-1.3553-0.73639-2.1604-0.84311zm0.49972 0.96274c0.44348 0.01723 0.70148 0.26649 0.99613 0.47005-0.0399 0.65687-0.12129 1.2946-0.37442 1.8531-0.23637-0.38807-0.68467-0.65605-1.2407-0.86304 0.21123-0.64374 0.42045-1.2218 0.61901-1.4601z" fill="#00838f"/>
<path d="m549.58 86.43-0.28758-0.6323 0.6583 0.37626z" fill="#4fb3bf"/>
<path d="m550.18 86.043 0.0756-0.76747 0.50878 0.58113z" fill="#4fb3bf"/>
<path d="m551.02 85.896 0.28538-0.61793 0.0244 0.73768z" fill="#4fb3bf"/>
<path d="m552.63 86.306c0.39251-0.33779 0.59399-0.73897 0.65545-1.1585 0.58335 0.8719 0.25307 1.6696-0.24762 2.3283 0.0224-0.43894-0.0694-0.9011-0.40783-1.1699z" fill="#4fb3bf"/>
<path d="m559.66 89.264c-0.25168 1.65e-4 -0.50948 0.03254-0.77204 0.08926-0.066 1.0819-0.29538 1.6093-0.49049 2.2534 0.7535 0.09773 1.4917 0.24679 2.112 0.79351 0.32125-0.81765 0.2938-1.8461 0.21014-2.9087-0.3371-0.15967-0.69173-0.22783-1.0596-0.22752zm0.0198 0.56155c0.17403 6.83e-4 0.34814 0.03772 0.52218 0.08365 0.12466 0.61313 0.0938 0.96482 7e-3 1.2232l-1.1018-0.41754 0.166-0.81414c0.13533-0.05509 0.27077-0.07587 0.40613-0.07518z" fill="#00838f"/>
<path d="m557.96 82.24c0.4184 0.8492 0.86448 1.6905 0.96036 2.6309 0.23462 1.594 7e-3 2.7743 5e-3 4.1576 0.55796-0.12862 1.1396-0.10511 1.743 0.05713-0.17723-2.5601-0.13601-5.2039-2.7091-6.8456zm1.6114 3.7782c0.23036 0.44167 0.47125 0.83516 0.58134 1.826-0.1918 0.01225-0.32605 0.23711-0.5902-0.01476z" fill="#00838f"/>
<path d="m542.7 84.198c-0.63424 0.50734-0.97257 0.79939-1.1701 1.2632 4e-3 0.60829 0.37809 1.0142 0.72227 1.0679 0.57466 0.03144 1.2413-0.22525 1.9925-0.87906 0.32378-0.37875 0.35199-0.91883 0.25179-1.1391-0.18411-0.33738-0.64055-0.49327-0.80935-0.44216-0.50358 0.1741-0.73113 0.43247-0.89545 0.69062-0.17391 0.26784-0.085 0.36566 7e-3 0.48024 0.0817 0.07723 0.25723 0.13341 0.40123 0.07777 0.15496-0.05522 0.28252-0.15018 0.34495-0.33944-0.12154 0.03157-0.23103 0.15539-0.34537 0-0.0694-0.16282 0.0503-0.31533 0.16076-0.37655 0.2069-0.10484 0.37917-0.0678 0.4876 0.04169 0.20438 0.2213 0.0646 0.50889-0.025 0.6532-0.35593 0.3901-0.74711 0.55582-1.0985 0.54923-0.37784-0.02761-0.54197-0.34679-0.50034-0.58288-0.0111-0.43813 0.29954-0.71137 0.47568-1.0647z" fill="#c4c4c4"/>
<path d="m542.79 83.617c0.36335-1.2282 1.263-1.2058 2.2026-0.72475-0.74334-0.07026-0.86535 0.32826-1.1155 0.63007-0.33297-0.03062-0.65841-0.07915-1.087 0.09473z" fill="#4fb3bf"/>
<path d="m544.22 83.664c0.84212-0.41817 1.5225-0.60648 1.8619-0.44056 0.60731 0.32727 0.6974 0.70022 0.7735 0.90685-0.99139-0.34331-1.4833-0.05837-2.015 0.19063-0.0535-0.31392-0.28879-0.51524-0.62037-0.65691z" fill="#4fb3bf"/>
<path d="m545.01 84.581c0.55419 0.05358 0.85972 0.17734 1.2224 0.41559 0.2009 0.22466 0.10038 0.92424-0.10173 1.5882-4e-3 -0.47237-0.24492-0.69416-0.46862-0.74113-0.20412-0.04279-0.63643-0.0054-1.1077 0.04935 0.22172-0.38393 0.37199-0.82249 0.45557-1.312z" fill="#4fb3bf"/>
<path d="m528.45 69.376c-0.43715 0.06418-1.2015 0.04003-1.485 0.57686-0.24176 0.51483-0.0271 0.81641 0.38746 0.97659 0.23432 0.07223 0.57747-0.29246 0.75647-0.74088-0.0709-0.39254 0.19336-0.56416 0.34111-0.81257z" fill="#c4c4c4"/>
<path d="m550.66 89.071c-0.27016-0.22302-0.50335-0.49304-0.55444-0.99454 0.22534-0.26151 0.70064-0.31743 0.70136-0.25483-0.0124 0.49276 0.11548 0.66596 0.18965 1.0355-0.0796 0.08433-0.13395 0.17868-0.33657 0.21389z" fill="#4fb3bf"/>
<path d="m550.54 89.531c-0.16877 0.29908-0.072 0.56394 0.18097 0.80867-0.68802 0.34064-1.0054-0.30923-1.2776-1.0796 0.0338-0.21758 0.13067-0.35794 0.27663-0.43809l0.35177 0.07545c7e-3 0.37242 0.12438 0.62572 0.46828 0.63355z" fill="#c4c4c4"/>
</g>
<path d="m529.16 67.17c-0.0435-1e-3 -0.087-3.15e-4 -0.13075 0.0026-0.70224 0.04727-1.4194 0.58492-1.6051 0.69557l-0.0315 0.01963-0.031 0.01912c-2.6188 1.6936-9.5683 5.4847-14.42 14.694-0.66712 1.24-0.41867 2.5841-0.25423 3.4551l1.1172 5.9159 2.4118-4.932c0.8204-0.52586 2.0875-1.1655 3.2406-1.7772l2.1368 5.2756 2.5626-4.6467 0.85111 1.247c-0.39267 1.4961-0.75838 3.2197-0.89244 5.6281l-0.0253 0.4532 0.17208 0.42013c0.18244 0.44286 0.47684 0.83731 0.86609 1.1829l0.20773 0.48679c0.44675 1.0451 0.52697 1.8026 0.56639 2.7482l0.0103 0.25218 0.0739 0.24185c0.23518 0.77982 0.90217 1.2837 1.8536 1.5441l-0.016 0.0124c0.29408 0.54691 0.66048 4.238 2.696 4.6297 0.54925 0.97612 1.3938 2.86 3.0877 3.3001l0.53692 0.14056 0.46974-0.13901 0.17105 0.1726c0.52793 0.53278 0.85162 0.75189 0.85162 0.75189l0.48059 0.98237 1.0878 0.12299c0.17938 0.0204 0.39666 0.0126 0.62682-9e-3l1.6717 0.41548c2.462 0.61102 4.8052 0.62681 7.0936-0.28422l0.30285-0.0574c0.504-0.0955 2.8044 0.12536 5.8668-2.235 1.3783-0.39757 2.549-0.98042 3.5553-1.7053 1.6939-0.28443 2.282-2.1654 2.6463-2.6283 0.31215-0.39646 0.63307-0.81556 0.94879-1.2578 0.35627-0.14787 0.42622-0.58246 0.51729-0.76533 0.51567-0.80218 0.98703-1.6897 1.3426-2.6934l0.33382-0.67024c0.83892-1.6839 1.1552-3.4901 1.078-5.3878 0.10964-0.35408 0.17759-0.71955 0.22117-1.0852v-5.18e-4c0.053-0.32793 0.0701-0.79151 0.0527-1.249-1.6e-4 -0.01011 1.8e-4 -0.0204 0-0.03049l7e-3 -0.03411-7e-3 -0.10439c-9e-3 -0.33278-0.0262-0.65569-0.0496-0.95188l-0.076-0.95446c-0.13232-2.3945-0.25345-5.6897-3.592-7.8233l-1.6619-1.0625c-0.1-0.15704-0.20579-0.30371-0.32247-0.42943-0.35759-0.68972-0.95502-1.6655-1.1689-2.1461-0.49818-1.0659-1.5736-1.5945-2.573-1.8831l0.0573 1.1353c-1.3027-1.3929-3.2043-3.0056-6.2079-3.284-0.31813-0.0295-0.64447-0.04368-0.97877-0.04186-0.29533 0.0016-0.5992 0.01961-0.90794 0.04651-0.38365-1.0296-1.0862-1.9017-1.3456-2.2758l-0.16848-0.24288c-0.32163-0.32406-0.68543-0.61091-1.1901-0.786-0.61428 0.29696-1.1362 0.36356-1.9415 1.0201-0.0511 0.05696-0.0972 0.11404-0.14726 0.17105-1.2316 0.54431-4.8259 0.65292-5.795 2.2107l-0.0765 0.12144c-1.0248 0.26289-2.4373 0.5161-3.6908 1.2573-0.19013-0.14328-0.40719-0.27323-0.65474-0.38499l-0.65214-0.29456c-0.0942-0.98775-0.12838-2.0445-0.10541-2.9962 3e-3 -0.0045 5e-3 -0.0074 8e-3 -0.01188 0.0281-0.04654 0.0868-0.14953 0.13126-0.24598 0.0494-0.10717 0.22919-0.44768 0.19122-1.0098-0.11822-1.7397-0.72951-2.2379-1.3839-2.2546zm-16.217 15.423-0.01 0.01912c3e-3 -0.0046 5e-3 -0.0068 8e-3 -0.01137 0-0.0026-5e-5 -0.0052 3e-3 -0.0078zm34.373 4.8535c0.19267 0.31233 0.31306 0.60414 0.37515 0.98444l0.0471 0.27905 0.12091 0.2558c0.0754 0.15898 0.16071 0.2934 0.25064 0.41548l-0.0103 0.06925 0.16795 0.47439c0.29533 0.83563 1.2206 2.7729 3.0572 2.5259 0.0452 0.02737 0.0891 0.05737 0.13486 0.08372v0.02274c0.74547 0.44691 1.5331 0.54209 1.8712 0.59634l0.53898 0.08578 0.51004-0.19947c1.1634-0.45735 2.1066-1.3988 2.8293-2.5942l-0.11525 0.88728-0.50022 1.6531-0.68935 1.2723-0.0827 0.3452-0.10078 0.1912-0.33589 0.93741c-0.31001 0.50441-0.76539 1.0169-1.3291 1.7513l-0.061 0.07958c-0.9616 0.6429-2.0126 1.1762-3.1621 1.6314-0.57933 0.25833-1.5544 0.48616-1.8164 0.87126-0.41904 0.14298-0.83288 0.25381-1.2459 0.32349-0.6313-0.1678-1.1816-0.0405-1.65 0.0889l-2.0453-5e-3c-0.20421-0.051-0.42344-0.10761-0.66096-0.16588-0.26842-0.20989-0.53284-0.42987-0.8227-0.59376l-0.58237-0.09147c-4e-3 -0.0038-6e-3 -8e-3 -0.0104-0.01189-0.0238-0.02537-0.0493-0.05134-0.076-0.0801-0.0303-0.03263-0.061-0.06645-0.0935-0.1018-0.0362-0.03928-0.0748-0.08116-0.11369-0.12299l-0.15089 0.09043c-0.38568-0.33312-0.71662-0.78122-1.0759-1.17l-6e-3 -0.0124c0.0403-0.43695 0.0478-0.88761 0.0284-1.3317l-0.0238-0.56069-0.29247-0.45992-0.11163-2.1766-0.0941-0.0067c0.3238-0.61659 0.4948-1.3104 0.34211-1.9642 0.0108 0.03187 0.0227 0.0604 0.0331 0.09302l-0.0548-0.2434c8e-3 0.02416-5e-3 0.05011 3e-3 0.07441-0.12695-0.69449-0.32497-1.2318-0.49197-1.5989l0.014-0.03152z" fill="#005460" fill-opacity=".99608" opacity=".97764"/>
<path d="m554.97 77.336c0.30676 0.53042 0.50265 1.0713 0.54676 1.6265-0.19193 1.2846-1.4644 1.0322-1.669 2.046-0.28754-0.40643-0.4409-0.90508-0.4947-1.4721 0.84939-1.3383 1.3022-0.57457 1.617-2.2004z" fill="#00838f"/>
<path d="m549.43 82.381c-0.10594-0.93985 0.36956-1.5291 1.3643-1.9137-0.30651-0.28489-1.0212 0.24519-1.5003 0.34727-0.11052-0.29156-0.23636-0.60764 0.78421-1.0987-0.66193-0.2288-1.3543 0.6659-1.5717 0.51357-0.30549-0.15797 0.14787-0.76838 0.31964-1.2109-0.28357-0.07081-0.89818 0.91664-1.5943 0.97693-0.31219-0.09541-0.2239-0.60592 0.0775-1.4323-0.59703 0.18633-0.82508 1.0751-1.3241 1.3093-0.30997-0.13149-0.31896-0.76975-0.0212-1.3091-0.57865 0.01577-0.80697 1.4458-1.2784 1.4766-0.40383 0.03937-0.39305-0.68884-0.33301-1.5083-0.24946 0.33026-0.98712 0.92494-0.50046 1.8811 0.42541 1.036 3.7284-1.3709 5.5778 1.9682z" fill="#4fb3bf"/>
<path d="m544.12 74.56c0.48445-0.64803-0.5927-2.0347-1.1266-2.8045-1.5152 1.6431-2.2423 2.9972-2.2883 3.4326-0.58733 3.4925-0.12766 6.1725 2.0638 7.337 0.82711-0.18501 1.161-0.74567 1.4326-1.2279-2.3289 0.72974-2.6782-3.6518-1.9533-6.2431 0.22873-0.25133 0.82668-1.0327 1.3316-1.0115 0.20601 0.0087 0.39656 0.15095 0.54021 0.51737z" fill="#c4c4c4"/>
<path d="m541.42 72.761c-1.3384 0.72721-3.9726 0.71645-4.3258 1.2841-1.3432 3.7747 2.4283 11.133 3.8429 9.7269 0.22863-0.23792 0.1927-0.64829 0.22334-1.005-0.94263 1.5157-6.016-8.1154-0.31339-9.1865z" fill="#c4c4c4"/>
<path d="m526.26 72.945c0.11016 1.3898 0.0855 2.8482 1.1333 3.7613l-2.3582 2.0941c0.17002-1.2904 1.0446-3.2966 0.39972-3.7592-1.4306 1.2513-2.235 1.4108-5.9236 6.5982 0.78807-0.59346 1.5559-1.2225 2.4468-1.6349l0.0526 3.0678c0.87164-1.2581 1.3139-2.7072 1.8514-4.1139l1.4276 2.7441c0.55391-1.119 1.2284-2.7565 1.5986-3.0856 0.33731-0.31245 0.72412-0.39312 1.012-0.19662 0.27206 0.2243 0.48097 0.93236 0.19019 1.393-0.25274 0.29848-0.5697 0.25837-0.82244 0.25244 0.29303-0.24313 0.599-0.74124 0.18856-0.8641-0.25103-0.06027-0.40437 0.07395-0.52776 0.26788-0.19374 0.2337-0.53998 4.0965-0.64895 5.9873l-2.3054-3.3763-2.1055 3.8147-1.4175-3.5011c-1.671 0.90956-3.1353 1.9078-4.4414 2.9741 2.5356-5.8266 6.096-9.6925 10.25-12.423z" fill="#00838f"/>
<path d="m555.73 79.46c0.20099 0.7238 0.13246 1.1499 0.0746 1.5878-1.0741 1.7673-1.5038 0.75387-1.8184 1.5204-0.0663-0.41868-0.13053-0.83703 0.0602-1.2138 0.0769-0.41778 1.5195-0.64236 1.6837-1.8944z" fill="#4fb3bf"/>
<path d="m553.6 78.648c-1.0053 0.63379-1.9053 1.4016-1.9912 3.2058-0.44693-3.4007-3.8597-5.4257-8.135-3.5093-0.089-1.3461 0.0213-2.5682 0.67007-3.1028 5.4777-1.4405 7.6657 1.3739 9.4561 3.4063z" fill="#c4c4c4"/>
<path d="m536.37 74.893c-1.6322 0.51182-3.5234 0.64613-4.6202 1.9385-0.67063 1.5941 1.7568 4.9421 3.4335 7.395l1.7321 0.29593c-0.26282-0.75697-3.565-4.0329-3.6379-6.7126-0.0262-0.96828 1.3549-1.7237 3.0925-2.9168z" fill="#c4c4c4"/>
<path d="m530.15 75.806c0.11238 0.47649 0.0403 0.9144-0.26598 0.93836-2.0371 0.04534-1.7697-3.4575-1.7385-5.5159-0.76061 0.2103-0.99297-0.27052-1.1682-0.82604-2.8332 1.8323-7.7432 4.5294-12.275 13.141-0.27398 0.50616-0.19415 1.3732-0.0493 2.1405 2.9905-6.1138 6.747-10.567 11.913-13.826 0.76345 2.027 0.55007 4.8669 2.6657 5.8056 1.3222 0.35184 1.9099-1.4098 0.91799-1.8577z" fill="#c4c4c4"/>
<path d="m530.38 78.534c-0.83965 0.95281-3.5244 4.272-3.4679 4.8247 0.28498 1.191 3.9285 4.7309 5.5184 5.2365 0.48713-0.11031 0.80691-0.63638 1.2624-0.99269-1.8081-1.0462-4.5626-3.456-4.7437-4.2282-0.0484-0.38836 0.74455-2.7612 1.4308-4.8403z" fill="#c4c4c4"/>
<path d="m556.29 80.426c1.1328 1.2205 1.0206 9.31-2.6484 10.752-0.48211-0.07737-0.98857-0.12029-1.324-0.40507 0.93626-0.97353 0.44611-1.4094-0.32707-1.7387 0.24005-0.4541 0.45676-1.3742-0.35667-1.7033-0.78988-0.31951-1.3133 0.42651-1.1299 1.0408-0.3676-0.0095-0.72928-0.02324-0.84406-0.26514-0.21654-1.3258-0.88556-2.1002-1.5222-2.9142-0.19402-0.73275-0.3638-1.4273-0.21886-1.6264l0.58721 0.70491 1.3522 0.46905 0.15121-2.611 1.4417 1.6075c0.55318-1.0799 0.87707-2.0128 1.0965-2.8788 6.7e-4 0.24645 0.20686 0.49292 0.41693 0.73938l0.15573 3.1854-0.61863 1.1119-0.0566-2.4437c-0.40181 0.27093-0.64388 0.9891-0.91555 1.6244l-1.0729-1.425-0.13205 1.9586-1.0923-0.45341 1.0167 1.9112c0.52573-0.59379 1.2446-0.59441 1.9944-0.16661 0.73644 0.53409 0.69788 1.091 0.53154 1.7957 0.61939 0.25318 0.61817 0.90826 0.70833 1.5042 2.5152-2.5995 2.4697-5.6156 2.4822-7.0143-0.31342 0.14982-0.4617 0.42378-0.97199 0.42565-0.20663-0.04387-0.3473 0.0014-0.76062-0.3226l-0.47723 0.43828 0.32828-0.77657c1.3385-0.25643 2.2886-0.88957 2.2061-2.5245z" fill="#c4c4c4"/>
<path d="m527.39 85.991c-0.54572 1.9522-1.1142 3.8381-1.2839 6.8881 0.5823 1.4135 5.1412 2.5554 11.351 0.75184 0.43681-0.15049 0.99444-1.2859 0.93747-1.4673-0.16279-1.1998-0.43668-1.3223-0.67448-1.7947-0.0124 0.6392 0.0363 1.3767-0.11052 1.8595-0.85837 1.8107-8.4402 1.152-9.8271-0.39044-0.62315-1.3727-0.3644-3.7776-0.39234-5.847z" fill="#c4c4c4"/>
<path d="m536.5 89.628 1.5477-0.52457-0.24397 0.55939z" fill="#c4c4c4"/>
<path d="m535.85 85.083c1.8795 0.44244 0.49422 1.8681 0.43925 3.0737l4.9323-1.4574c-0.36446-0.30766-0.79061-0.55011-0.69526-1.3207l-1.8395 0.23217c-0.0247 0.14787-0.0741 0.34556 0.0443 0.4929 0.13422 0.14613 0.58494 0.2638 0.87742 0.39569l-1.7467 0.29182c0.25217-0.5361 0.36291-1.0943-0.0418-1.7332l3.8075-0.49348c-0.63372 0.91598-0.33082 1.9409 0.84786 2.4236l-5.9143 2.0254c-0.88826-0.06943-1.7589-0.21652-2.5809-0.57869 0.30746-0.31207 3.4463-2.4836 1.87-3.3519z" fill="#c4c4c4"/>
<path d="m527.17 94.523 0.99334 0.53508c0.18818 0.66292 0.23708 1.396 0.70968 1.9157 0.46046 0.32685 8.6684-0.47997 9.205-3.1862l0.0913 1.7737c-5.3581 3.2159-10.112 2.9529-10.275 2.4128-0.0415-0.99544-0.10817-2.0103-0.72407-3.4511z" fill="#c4c4c4"/>
<path d="m529.67 99.625c0.6431 1.089 0.79364 3.4165 1.4174 3.189 1.6366 0.01 4.6478-1.2178 7.0741-3.2359 0.20441-0.40564 0.29561-1.0414 0.25423-1.9038l-0.85077-1.2153c-0.31149 0.84235 0.26769 1.588-0.0833 2.2622-0.63446 0.8638-4.8744 2.3427-6.2069 2.2844z" fill="#c4c4c4"/>
<path d="m538.91 98.826c0.39472 0.38955 0.76826 0.86207 1.2127 1.0567-1.1721 1.1528-1.6484 2.6795-2.3064 4.1086-0.98358 1.1831-2.3204 1.6989-3.7117 2.1119-0.78568-0.20412-1.3324-1.4782-1.9345-2.5044l0.53928 0.29604c0.20253 0.21727 0.50141 0.66005 0.60758 0.6518 0.42138-0.25673 5.1557-1.6874 5.8477-4.7678 0.0136-0.31407-0.15336-0.6347-0.25461-0.95295z" fill="#c4c4c4"/>
<path d="m536.2 106.8c0.53546 0.0801 1.1409 0.29522 1.5697 0.16937 0.83309-0.85517 1.7681-2.8429 2.7619-5.4839l-0.28658-0.82322c0.36036 0.38768 0.7317 0.81884 1.005 0.86168-0.55224 2.1041-0.57549 4.4753-2.1293 6.0736-0.19252 0.17496-1.2249 0.53472-1.694 0.4813-0.11609-0.23679-0.78018-0.82819-1.2266-1.2788z" fill="#c4c4c4"/>
<path d="m542.12 102.07c-0.1109 0.19142-0.30603 0.32206-0.50634 0.44907 0.34609 2.1082-0.20675 4.1129-1.6237 6.0181 2.2011 0.54628 4.1876 0.51141 6.0231-0.26176 0.61305-1.3208 0.34371-3.6824 0.0532-5.703-1.0917 0.30208-2.5817-0.23173-3.9462-0.5024zm0.99785 1.3546c0.64406 0.12178 1.2881 0.3177 1.9321 0.6667 0.16185 1.2069 0.14333 2.3663-0.21559 3.436-0.84951 0.12889-1.7244 0.19291-2.6895 0.0262 0.87873-1.1534 0.73872-2.7164 0.97296-4.1289z" fill="#4fb3bf"/>
<path d="m551 101.42c-1.3569 0.62913-2.7681 1.0664-4.3042 1.0628 0.92193 3.112 0.20246 4.1123-0.17195 5.6894 1.414-0.26779 2.5398 0.11213 5.1418-1.9478-1e-3 -1.5181 0.0771-3.2445-0.66569-4.8044zm-0.61167 1.4192c0.29258 0.93728 0.11411 2.0725 0.20043 2.9726-0.64127 0.5647-1.387 0.73768-2.4986 1.0759 0.0995-1.0268 0.4102-1.7038 0.0542-3.4852 0.83499 0.0158 1.5423-0.26725 2.244-0.56327z" fill="#4fb3bf"/>
<path d="m555.28 99.113c-1.1507 0.79182-2.3918 1.4187-3.7122 1.9417 0.8251 2.0541 0.81967 3.3938 0.61542 4.9303 2.1878-0.62468 3.7278-1.7731 4.8575-3.2528-0.42982-1.226-0.87034-2.4596-1.7607-3.6192zm-0.37802 1.2697c0.39472 0.79949 0.73424 1.6096 0.87959 2.4569-0.32728 0.64723-1.4031 1.1089-2.2698 1.6223 0.36986-0.86284-0.28436-1.9784-0.48009-2.9808z" fill="#4fb3bf"/>
<path d="m557.7 95.333c-0.3225 1.3492-1.256 2.3199-2.0618 3.3697 0.64239 1.2112 1.4498 2.4303 1.7561 3.6255 1.0909-1.3855 2.1305-2.8127 2.6643-4.6508-0.35685-0.70815-0.90832-1.4495-2.3586-2.3444zm0.18049 1.4152 1.2636 1.6511-1.1841 2.0197c-0.22351-0.80633-0.79478-1.2661-1.224-1.8674 0.46683-0.58911 0.87019-1.1872 1.1446-1.8035z" fill="#4fb3bf"/>
<path d="m559.03 91.959c-0.13108 1.0083-0.6038 1.9974-1.1246 2.9839 0.98316 0.59382 2.0086 1.143 2.417 2.3422 0.67277-1.3505 0.94423-2.8515 0.868-4.4829-0.62345-0.47937-1.3553-0.73639-2.1604-0.84311zm0.49972 0.96274c0.44348 0.01723 0.70148 0.26649 0.99613 0.47005-0.0399 0.65687-0.12129 1.2946-0.37442 1.8531-0.23637-0.38807-0.68467-0.65605-1.2407-0.86304 0.21123-0.64374 0.42045-1.2218 0.61901-1.4601z" fill="#00838f"/>
<path d="m550.28 86.43-0.28758-0.6323 0.6583 0.37626z" fill="#4fb3bf"/>
<path d="m550.88 86.043 0.0756-0.76747 0.50878 0.58113z" fill="#4fb3bf"/>
<path d="m551.72 85.896 0.28538-0.61793 0.0244 0.73768z" fill="#4fb3bf"/>
<path d="m553.33 86.306c0.39251-0.33779 0.59399-0.73897 0.65545-1.1585 0.58335 0.8719 0.25307 1.6696-0.24762 2.3283 0.0224-0.43894-0.0694-0.9011-0.40783-1.1699z" fill="#4fb3bf"/>
<path d="m560.36 89.264c-0.25168 1.65e-4 -0.50948 0.03254-0.77204 0.08926-0.066 1.0819-0.29538 1.6093-0.49049 2.2534 0.7535 0.09773 1.4917 0.24679 2.112 0.79351 0.32125-0.81765 0.2938-1.8461 0.21014-2.9087-0.3371-0.15967-0.69173-0.22783-1.0596-0.22752zm0.0198 0.56155c0.17403 6.83e-4 0.34814 0.03772 0.52218 0.08365 0.12466 0.61313 0.0938 0.96482 7e-3 1.2232l-1.1018-0.41754 0.166-0.81414c0.13533-0.05509 0.27077-0.07587 0.40613-0.07518z" fill="#00838f"/>
<path d="m558.67 82.24c0.4184 0.8492 0.86448 1.6905 0.96036 2.6309 0.23462 1.594 7e-3 2.7743 5e-3 4.1576 0.55796-0.12862 1.1396-0.10511 1.743 0.05713-0.17723-2.5601-0.13601-5.2039-2.7091-6.8456zm1.6114 3.7782c0.23036 0.44167 0.47125 0.83516 0.58134 1.826-0.1918 0.01225-0.32605 0.23711-0.5902-0.01476z" fill="#00838f"/>
<path d="m543.41 84.198c-0.63424 0.50734-0.97257 0.79939-1.1701 1.2632 4e-3 0.60829 0.37809 1.0142 0.72227 1.0679 0.57466 0.03144 1.2413-0.22525 1.9925-0.87906 0.32378-0.37875 0.35199-0.91883 0.25179-1.1391-0.18411-0.33738-0.64055-0.49327-0.80935-0.44216-0.50358 0.1741-0.73113 0.43247-0.89545 0.69062-0.17391 0.26784-0.085 0.36566 7e-3 0.48024 0.0817 0.07723 0.25723 0.13341 0.40123 0.07777 0.15496-0.05522 0.28252-0.15018 0.34495-0.33944-0.12154 0.03157-0.23103 0.15539-0.34537 0-0.0694-0.16282 0.0503-0.31533 0.16076-0.37655 0.2069-0.10484 0.37917-0.0678 0.4876 0.04169 0.20438 0.2213 0.0646 0.50889-0.025 0.6532-0.35593 0.3901-0.74711 0.55582-1.0985 0.54923-0.37784-0.02761-0.54197-0.34679-0.50034-0.58288-0.0111-0.43813 0.29954-0.71137 0.47568-1.0647z" fill="#c4c4c4"/>
<path d="m543.49 83.617c0.36335-1.2282 1.263-1.2058 2.2026-0.72475-0.74334-0.07026-0.86535 0.32826-1.1155 0.63007-0.33297-0.03062-0.65841-0.07915-1.087 0.09473z" fill="#4fb3bf"/>
<path d="m544.92 83.664c0.84212-0.41817 1.5225-0.60648 1.8619-0.44056 0.60731 0.32727 0.6974 0.70022 0.7735 0.90685-0.99139-0.34331-1.4833-0.05837-2.015 0.19063-0.0535-0.31392-0.28879-0.51524-0.62037-0.65691z" fill="#4fb3bf"/>
<path d="m545.71 84.581c0.55419 0.05358 0.85972 0.17734 1.2224 0.41559 0.2009 0.22466 0.10038 0.92424-0.10173 1.5882-4e-3 -0.47237-0.24492-0.69416-0.46862-0.74113-0.20412-0.04279-0.63643-0.0054-1.1077 0.04935 0.22172-0.38393 0.37199-0.82249 0.45557-1.312z" fill="#4fb3bf"/>
<path d="m529.15 69.376c-0.43715 0.06418-1.2015 0.04003-1.485 0.57686-0.24176 0.51483-0.0271 0.81641 0.38746 0.97659 0.23432 0.07223 0.57747-0.29246 0.75647-0.74088-0.0709-0.39254 0.19336-0.56416 0.34111-0.81257z" fill="#c4c4c4"/>
<path d="m551.37 89.071c-0.27016-0.22302-0.50335-0.49304-0.55444-0.99454 0.22534-0.26151 0.70064-0.31743 0.70136-0.25483-0.0124 0.49276 0.11548 0.66596 0.18965 1.0355-0.0796 0.08433-0.13395 0.17868-0.33657 0.21389z" fill="#4fb3bf"/>
<path d="m551.25 89.531c-0.16877 0.29908-0.072 0.56394 0.18097 0.80867-0.68802 0.34064-1.0054-0.30923-1.2776-1.0796 0.0338-0.21758 0.13067-0.35794 0.27663-0.43809l0.35177 0.07545c7e-3 0.37242 0.12438 0.62572 0.46828 0.63355z" fill="#c4c4c4"/>
</g>
<script type="text/javascript">!function(){const t="http://www.w3.org/2000/svg",e="http://www.w3.org/1999/xlink",s="http://www.w3.org/1999/xhtml",r=2;if(document.createElementNS(t,"meshgradient").x)return;const n=(t,e,s,r)=&gt;{let n=new x(.5*(e.x+s.x),.5*(e.y+s.y)),o=new x(.5*(t.x+e.x),.5*(t.y+e.y)),i=new x(.5*(s.x+r.x),.5*(s.y+r.y)),a=new x(.5*(n.x+o.x),.5*(n.y+o.y)),h=new x(.5*(n.x+i.x),.5*(n.y+i.y)),l=new x(.5*(a.x+h.x),.5*(a.y+h.y));return[[t,o,a,l],[l,h,i,r]]},o=t=&gt;{let e=t[0].distSquared(t[1]),s=t[2].distSquared(t[3]),r=.25*t[0].distSquared(t[2]),n=.25*t[1].distSquared(t[3]),o=e&gt;s?e:s,i=r&gt;n?r:n;return 18*(o&gt;i?o:i)},i=(t,e)=&gt;Math.sqrt(t.distSquared(e)),a=(t,e)=&gt;t.scale(2/3).add(e.scale(1/3)),h=t=&gt;{let e,s,r,n,o,i,a,h=new g;return t.match(/(\w+\(\s*[^)]+\))+/g).forEach(t=&gt;{let l=t.match(/[\w.-]+/g),d=l.shift();switch(d){case"translate":2===l.length?e=new g(1,0,0,1,l[0],l[1]):(console.error("mesh.js: translate does not have 2 arguments!"),e=new g(1,0,0,1,0,0)),h=h.append(e);break;case"scale":1===l.length?s=new g(l[0],0,0,l[0],0,0):2===l.length?s=new g(l[0],0,0,l[1],0,0):(console.error("mesh.js: scale does not have 1 or 2 arguments!"),s=new g(1,0,0,1,0,0)),h=h.append(s);break;case"rotate":if(3===l.length&amp;&amp;(e=new g(1,0,0,1,l[1],l[2]),h=h.append(e)),l[0]){r=l[0]*Math.PI/180;let t=Math.cos(r),e=Math.sin(r);Math.abs(t)&lt;1e-16&amp;&amp;(t=0),Math.abs(e)&lt;1e-16&amp;&amp;(e=0),a=new g(t,e,-e,t,0,0),h=h.append(a)}else console.error("math.js: No argument to rotate transform!");3===l.length&amp;&amp;(e=new g(1,0,0,1,-l[1],-l[2]),h=h.append(e));break;case"skewX":l[0]?(r=l[0]*Math.PI/180,n=Math.tan(r),o=new g(1,0,n,1,0,0),h=h.append(o)):console.error("math.js: No argument to skewX transform!");break;case"skewY":l[0]?(r=l[0]*Math.PI/180,n=Math.tan(r),i=new g(1,n,0,1,0,0),h=h.append(i)):console.error("math.js: No argument to skewY transform!");break;case"matrix":6===l.length?h=h.append(new g(...l)):console.error("math.js: Incorrect number of arguments for matrix!");break;default:console.error("mesh.js: Unhandled transform type: "+d)}}),h},l=t=&gt;{let e=[],s=t.split(/[ ,]+/);for(let t=0,r=s.length-1;t&lt;r;t+=2)e.push(new x(parseFloat(s[t]),parseFloat(s[t+1])));return e},d=(t,e)=&gt;{for(let s in e)t.setAttribute(s,e[s])},c=(t,e,s,r,n)=&gt;{let o,i,a=[0,0,0,0];for(let h=0;h&lt;3;++h)e[h]&lt;t[h]&amp;&amp;e[h]&lt;s[h]||t[h]&lt;e[h]&amp;&amp;s[h]&lt;e[h]?a[h]=0:(a[h]=.5*((e[h]-t[h])/r+(s[h]-e[h])/n),o=Math.abs(3*(e[h]-t[h])/r),i=Math.abs(3*(s[h]-e[h])/n),a[h]&gt;o?a[h]=o:a[h]&gt;i&amp;&amp;(a[h]=i));return a},u=[[1,0,0,0,0,0,0,0,0,0,0,0,0,0,0,0],[0,0,0,0,1,0,0,0,0,0,0,0,0,0,0,0],[-3,3,0,0,-2,-1,0,0,0,0,0,0,0,0,0,0],[2,-2,0,0,1,1,0,0,0,0,0,0,0,0,0,0],[0,0,0,0,0,0,0,0,1,0,0,0,0,0,0,0],[0,0,0,0,0,0,0,0,0,0,0,0,1,0,0,0],[0,0,0,0,0,0,0,0,-3,3,0,0,-2,-1,0,0],[0,0,0,0,0,0,0,0,2,-2,0,0,1,1,0,0],[-3,0,3,0,0,0,0,0,-2,0,-1,0,0,0,0,0],[0,0,0,0,-3,0,3,0,0,0,0,0,-2,0,-1,0],[9,-9,-9,9,6,3,-6,-3,6,-6,3,-3,4,2,2,1],[-6,6,6,-6,-3,-3,3,3,-4,4,-2,2,-2,-2,-1,-1],[2,0,-2,0,0,0,0,0,1,0,1,0,0,0,0,0],[0,0,0,0,2,0,-2,0,0,0,0,0,1,0,1,0],[-6,6,6,-6,-4,-2,4,2,-3,3,-3,3,-2,-1,-2,-1],[4,-4,-4,4,2,2,-2,-2,2,-2,2,-2,1,1,1,1]],f=t=&gt;{let e=[];for(let s=0;s&lt;16;++s){e[s]=0;for(let r=0;r&lt;16;++r)e[s]+=u[s][r]*t[r]}return e},p=(t,e,s)=&gt;{const r=e*e,n=s*s,o=e*e*e,i=s*s*s;return t[0]+t[1]*e+t[2]*r+t[3]*o+t[4]*s+t[5]*s*e+t[6]*s*r+t[7]*s*o+t[8]*n+t[9]*n*e+t[10]*n*r+t[11]*n*o+t[12]*i+t[13]*i*e+t[14]*i*r+t[15]*i*o},y=t=&gt;{let e=[],s=[],r=[];for(let s=0;s&lt;4;++s)e[s]=[],e[s][0]=n(t[0][s],t[1][s],t[2][s],t[3][s]),e[s][1]=[],e[s][1].push(...n(...e[s][0][0])),e[s][1].push(...n(...e[s][0][1])),e[s][2]=[],e[s][2].push(...n(...e[s][1][0])),e[s][2].push(...n(...e[s][1][1])),e[s][2].push(...n(...e[s][1][2])),e[s][2].push(...n(...e[s][1][3]));for(let t=0;t&lt;8;++t){s[t]=[];for(let r=0;r&lt;4;++r)s[t][r]=[],s[t][r][0]=n(e[0][2][t][r],e[1][2][t][r],e[2][2][t][r],e[3][2][t][r]),s[t][r][1]=[],s[t][r][1].push(...n(...s[t][r][0][0])),s[t][r][1].push(...n(...s[t][r][0][1])),s[t][r][2]=[],s[t][r][2].push(...n(...s[t][r][1][0])),s[t][r][2].push(...n(...s[t][r][1][1])),s[t][r][2].push(...n(...s[t][r][1][2])),s[t][r][2].push(...n(...s[t][r][1][3]))}for(let t=0;t&lt;8;++t){r[t]=[];for(let e=0;e&lt;8;++e)r[t][e]=[],r[t][e][0]=s[t][0][2][e],r[t][e][1]=s[t][1][2][e],r[t][e][2]=s[t][2][2][e],r[t][e][3]=s[t][3][2][e]}return r};class x{constructor(t,e){this.x=t||0,this.y=e||0}toString(){return`(x=${this.x}, y=${this.y})`}clone(){return new x(this.x,this.y)}add(t){return new x(this.x+t.x,this.y+t.y)}scale(t){return void 0===t.x?new x(this.x*t,this.y*t):new x(this.x*t.x,this.y*t.y)}distSquared(t){let e=this.x-t.x,s=this.y-t.y;return e*e+s*s}transform(t){let e=this.x*t.a+this.y*t.c+t.e,s=this.x*t.b+this.y*t.d+t.f;return new x(e,s)}}class g{constructor(t,e,s,r,n,o){void 0===t?(this.a=1,this.b=0,this.c=0,this.d=1,this.e=0,this.f=0):(this.a=t,this.b=e,this.c=s,this.d=r,this.e=n,this.f=o)}toString(){return`affine: ${this.a} ${this.c} ${this.e} \n       ${this.b} ${this.d} ${this.f}`}append(t){t instanceof g||console.error("mesh.js: argument to Affine.append is not affine!");let e=this.a*t.a+this.c*t.b,s=this.b*t.a+this.d*t.b,r=this.a*t.c+this.c*t.d,n=this.b*t.c+this.d*t.d,o=this.a*t.e+this.c*t.f+this.e,i=this.b*t.e+this.d*t.f+this.f;return new g(e,s,r,n,o,i)}}class w{constructor(t,e){this.nodes=t,this.colors=e}paintCurve(t,e){if(o(this.nodes)&gt;r){const s=n(...this.nodes);let r=[[],[]],o=[[],[]];for(let t=0;t&lt;4;++t)r[0][t]=this.colors[0][t],r[1][t]=(this.colors[0][t]+this.colors[1][t])/2,o[0][t]=r[1][t],o[1][t]=this.colors[1][t];let i=new w(s[0],r),a=new w(s[1],o);i.paintCurve(t,e),a.paintCurve(t,e)}else{let s=Math.round(this.nodes[0].x);if(s&gt;=0&amp;&amp;s&lt;e){let r=4*(~~this.nodes[0].y*e+s);t[r]=Math.round(this.colors[0][0]),t[r+1]=Math.round(this.colors[0][1]),t[r+2]=Math.round(this.colors[0][2]),t[r+3]=Math.round(this.colors[0][3])}}}}class m{constructor(t,e){this.nodes=t,this.colors=e}split(){let t=[[],[],[],[]],e=[[],[],[],[]],s=[[[],[]],[[],[]]],r=[[[],[]],[[],[]]];for(let s=0;s&lt;4;++s){const r=n(this.nodes[0][s],this.nodes[1][s],this.nodes[2][s],this.nodes[3][s]);t[0][s]=r[0][0],t[1][s]=r[0][1],t[2][s]=r[0][2],t[3][s]=r[0][3],e[0][s]=r[1][0],e[1][s]=r[1][1],e[2][s]=r[1][2],e[3][s]=r[1][3]}for(let t=0;t&lt;4;++t)s[0][0][t]=this.colors[0][0][t],s[0][1][t]=this.colors[0][1][t],s[1][0][t]=(this.colors[0][0][t]+this.colors[1][0][t])/2,s[1][1][t]=(this.colors[0][1][t]+this.colors[1][1][t])/2,r[0][0][t]=s[1][0][t],r[0][1][t]=s[1][1][t],r[1][0][t]=this.colors[1][0][t],r[1][1][t]=this.colors[1][1][t];return[new m(t,s),new m(e,r)]}paint(t,e){let s,n=!1;for(let t=0;t&lt;4;++t)if((s=o([this.nodes[0][t],this.nodes[1][t],this.nodes[2][t],this.nodes[3][t]]))&gt;r){n=!0;break}if(n){let s=this.split();s[0].paint(t,e),s[1].paint(t,e)}else{new w([...this.nodes[0]],[...this.colors[0]]).paintCurve(t,e)}}}class b{constructor(t){this.readMesh(t),this.type=t.getAttribute("type")||"bilinear"}readMesh(t){let e=[[]],s=[[]],r=Number(t.getAttribute("x")),n=Number(t.getAttribute("y"));e[0][0]=new x(r,n);let o=t.children;for(let t=0,r=o.length;t&lt;r;++t){e[3*t+1]=[],e[3*t+2]=[],e[3*t+3]=[],s[t+1]=[];let r=o[t].children;for(let n=0,o=r.length;n&lt;o;++n){let o=r[n].children;for(let r=0,i=o.length;r&lt;i;++r){let i=r;0!==t&amp;&amp;++i;let h,d=o[r].getAttribute("path"),c="l";null!=d&amp;&amp;(c=(h=d.match(/\s*([lLcC])\s*(.*)/))[1]);let u=l(h[2]);switch(c){case"l":0===i?(e[3*t][3*n+3]=u[0].add(e[3*t][3*n]),e[3*t][3*n+1]=a(e[3*t][3*n],e[3*t][3*n+3]),e[3*t][3*n+2]=a(e[3*t][3*n+3],e[3*t][3*n])):1===i?(e[3*t+3][3*n+3]=u[0].add(e[3*t][3*n+3]),e[3*t+1][3*n+3]=a(e[3*t][3*n+3],e[3*t+3][3*n+3]),e[3*t+2][3*n+3]=a(e[3*t+3][3*n+3],e[3*t][3*n+3])):2===i?(0===n&amp;&amp;(e[3*t+3][3*n+0]=u[0].add(e[3*t+3][3*n+3])),e[3*t+3][3*n+1]=a(e[3*t+3][3*n],e[3*t+3][3*n+3]),e[3*t+3][3*n+2]=a(e[3*t+3][3*n+3],e[3*t+3][3*n])):(e[3*t+1][3*n]=a(e[3*t][3*n],e[3*t+3][3*n]),e[3*t+2][3*n]=a(e[3*t+3][3*n],e[3*t][3*n]));break;case"L":0===i?(e[3*t][3*n+3]=u[0],e[3*t][3*n+1]=a(e[3*t][3*n],e[3*t][3*n+3]),e[3*t][3*n+2]=a(e[3*t][3*n+3],e[3*t][3*n])):1===i?(e[3*t+3][3*n+3]=u[0],e[3*t+1][3*n+3]=a(e[3*t][3*n+3],e[3*t+3][3*n+3]),e[3*t+2][3*n+3]=a(e[3*t+3][3*n+3],e[3*t][3*n+3])):2===i?(0===n&amp;&amp;(e[3*t+3][3*n+0]=u[0]),e[3*t+3][3*n+1]=a(e[3*t+3][3*n],e[3*t+3][3*n+3]),e[3*t+3][3*n+2]=a(e[3*t+3][3*n+3],e[3*t+3][3*n])):(e[3*t+1][3*n]=a(e[3*t][3*n],e[3*t+3][3*n]),e[3*t+2][3*n]=a(e[3*t+3][3*n],e[3*t][3*n]));break;case"c":0===i?(e[3*t][3*n+1]=u[0].add(e[3*t][3*n]),e[3*t][3*n+2]=u[1].add(e[3*t][3*n]),e[3*t][3*n+3]=u[2].add(e[3*t][3*n])):1===i?(e[3*t+1][3*n+3]=u[0].add(e[3*t][3*n+3]),e[3*t+2][3*n+3]=u[1].add(e[3*t][3*n+3]),e[3*t+3][3*n+3]=u[2].add(e[3*t][3*n+3])):2===i?(e[3*t+3][3*n+2]=u[0].add(e[3*t+3][3*n+3]),e[3*t+3][3*n+1]=u[1].add(e[3*t+3][3*n+3]),0===n&amp;&amp;(e[3*t+3][3*n+0]=u[2].add(e[3*t+3][3*n+3]))):(e[3*t+2][3*n]=u[0].add(e[3*t+3][3*n]),e[3*t+1][3*n]=u[1].add(e[3*t+3][3*n]));break;case"C":0===i?(e[3*t][3*n+1]=u[0],e[3*t][3*n+2]=u[1],e[3*t][3*n+3]=u[2]):1===i?(e[3*t+1][3*n+3]=u[0],e[3*t+2][3*n+3]=u[1],e[3*t+3][3*n+3]=u[2]):2===i?(e[3*t+3][3*n+2]=u[0],e[3*t+3][3*n+1]=u[1],0===n&amp;&amp;(e[3*t+3][3*n+0]=u[2])):(e[3*t+2][3*n]=u[0],e[3*t+1][3*n]=u[1]);break;default:console.error("mesh.js: "+c+" invalid path type.")}if(0===t&amp;&amp;0===n||r&gt;0){let e=window.getComputedStyle(o[r]).stopColor.match(/^rgb\s*\(\s*(\d+)\s*,\s*(\d+)\s*,\s*(\d+)\s*\)$/i),a=window.getComputedStyle(o[r]).stopOpacity,h=255;a&amp;&amp;(h=Math.floor(255*a)),e&amp;&amp;(0===i?(s[t][n]=[],s[t][n][0]=Math.floor(e[1]),s[t][n][1]=Math.floor(e[2]),s[t][n][2]=Math.floor(e[3]),s[t][n][3]=h):1===i?(s[t][n+1]=[],s[t][n+1][0]=Math.floor(e[1]),s[t][n+1][1]=Math.floor(e[2]),s[t][n+1][2]=Math.floor(e[3]),s[t][n+1][3]=h):2===i?(s[t+1][n+1]=[],s[t+1][n+1][0]=Math.floor(e[1]),s[t+1][n+1][1]=Math.floor(e[2]),s[t+1][n+1][2]=Math.floor(e[3]),s[t+1][n+1][3]=h):3===i&amp;&amp;(s[t+1][n]=[],s[t+1][n][0]=Math.floor(e[1]),s[t+1][n][1]=Math.floor(e[2]),s[t+1][n][2]=Math.floor(e[3]),s[t+1][n][3]=h))}}e[3*t+1][3*n+1]=new x,e[3*t+1][3*n+2]=new x,e[3*t+2][3*n+1]=new x,e[3*t+2][3*n+2]=new x,e[3*t+1][3*n+1].x=(-4*e[3*t][3*n].x+6*(e[3*t][3*n+1].x+e[3*t+1][3*n].x)+-2*(e[3*t][3*n+3].x+e[3*t+3][3*n].x)+3*(e[3*t+3][3*n+1].x+e[3*t+1][3*n+3].x)+-1*e[3*t+3][3*n+3].x)/9,e[3*t+1][3*n+2].x=(-4*e[3*t][3*n+3].x+6*(e[3*t][3*n+2].x+e[3*t+1][3*n+3].x)+-2*(e[3*t][3*n].x+e[3*t+3][3*n+3].x)+3*(e[3*t+3][3*n+2].x+e[3*t+1][3*n].x)+-1*e[3*t+3][3*n].x)/9,e[3*t+2][3*n+1].x=(-4*e[3*t+3][3*n].x+6*(e[3*t+3][3*n+1].x+e[3*t+2][3*n].x)+-2*(e[3*t+3][3*n+3].x+e[3*t][3*n].x)+3*(e[3*t][3*n+1].x+e[3*t+2][3*n+3].x)+-1*e[3*t][3*n+3].x)/9,e[3*t+2][3*n+2].x=(-4*e[3*t+3][3*n+3].x+6*(e[3*t+3][3*n+2].x+e[3*t+2][3*n+3].x)+-2*(e[3*t+3][3*n].x+e[3*t][3*n+3].x)+3*(e[3*t][3*n+2].x+e[3*t+2][3*n].x)+-1*e[3*t][3*n].x)/9,e[3*t+1][3*n+1].y=(-4*e[3*t][3*n].y+6*(e[3*t][3*n+1].y+e[3*t+1][3*n].y)+-2*(e[3*t][3*n+3].y+e[3*t+3][3*n].y)+3*(e[3*t+3][3*n+1].y+e[3*t+1][3*n+3].y)+-1*e[3*t+3][3*n+3].y)/9,e[3*t+1][3*n+2].y=(-4*e[3*t][3*n+3].y+6*(e[3*t][3*n+2].y+e[3*t+1][3*n+3].y)+-2*(e[3*t][3*n].y+e[3*t+3][3*n+3].y)+3*(e[3*t+3][3*n+2].y+e[3*t+1][3*n].y)+-1*e[3*t+3][3*n].y)/9,e[3*t+2][3*n+1].y=(-4*e[3*t+3][3*n].y+6*(e[3*t+3][3*n+1].y+e[3*t+2][3*n].y)+-2*(e[3*t+3][3*n+3].y+e[3*t][3*n].y)+3*(e[3*t][3*n+1].y+e[3*t+2][3*n+3].y)+-1*e[3*t][3*n+3].y)/9,e[3*t+2][3*n+2].y=(-4*e[3*t+3][3*n+3].y+6*(e[3*t+3][3*n+2].y+e[3*t+2][3*n+3].y)+-2*(e[3*t+3][3*n].y+e[3*t][3*n+3].y)+3*(e[3*t][3*n+2].y+e[3*t+2][3*n].y)+-1*e[3*t][3*n].y)/9}}this.nodes=e,this.colors=s}paintMesh(t,e){let s=(this.nodes.length-1)/3,r=(this.nodes[0].length-1)/3;if("bilinear"===this.type||s&lt;2||r&lt;2){let n;for(let o=0;o&lt;s;++o)for(let s=0;s&lt;r;++s){let r=[];for(let t=3*o,e=3*o+4;t&lt;e;++t)r.push(this.nodes[t].slice(3*s,3*s+4));let i=[];i.push(this.colors[o].slice(s,s+2)),i.push(this.colors[o+1].slice(s,s+2)),(n=new m(r,i)).paint(t,e)}}else{let n,o,a,h,l,d,u;const x=s,g=r;s++,r++;let w=new Array(s);for(let t=0;t&lt;s;++t){w[t]=new Array(r);for(let e=0;e&lt;r;++e)w[t][e]=[],w[t][e][0]=this.nodes[3*t][3*e],w[t][e][1]=this.colors[t][e]}for(let t=0;t&lt;s;++t)for(let e=0;e&lt;r;++e)0!==t&amp;&amp;t!==x&amp;&amp;(n=i(w[t-1][e][0],w[t][e][0]),o=i(w[t+1][e][0],w[t][e][0]),w[t][e][2]=c(w[t-1][e][1],w[t][e][1],w[t+1][e][1],n,o)),0!==e&amp;&amp;e!==g&amp;&amp;(n=i(w[t][e-1][0],w[t][e][0]),o=i(w[t][e+1][0],w[t][e][0]),w[t][e][3]=c(w[t][e-1][1],w[t][e][1],w[t][e+1][1],n,o));for(let t=0;t&lt;r;++t){w[0][t][2]=[],w[x][t][2]=[];for(let e=0;e&lt;4;++e)n=i(w[1][t][0],w[0][t][0]),o=i(w[x][t][0],w[x-1][t][0]),w[0][t][2][e]=n&gt;0?2*(w[1][t][1][e]-w[0][t][1][e])/n-w[1][t][2][e]:0,w[x][t][2][e]=o&gt;0?2*(w[x][t][1][e]-w[x-1][t][1][e])/o-w[x-1][t][2][e]:0}for(let t=0;t&lt;s;++t){w[t][0][3]=[],w[t][g][3]=[];for(let e=0;e&lt;4;++e)n=i(w[t][1][0],w[t][0][0]),o=i(w[t][g][0],w[t][g-1][0]),w[t][0][3][e]=n&gt;0?2*(w[t][1][1][e]-w[t][0][1][e])/n-w[t][1][3][e]:0,w[t][g][3][e]=o&gt;0?2*(w[t][g][1][e]-w[t][g-1][1][e])/o-w[t][g-1][3][e]:0}for(let s=0;s&lt;x;++s)for(let r=0;r&lt;g;++r){let n=i(w[s][r][0],w[s+1][r][0]),o=i(w[s][r+1][0],w[s+1][r+1][0]),c=i(w[s][r][0],w[s][r+1][0]),x=i(w[s+1][r][0],w[s+1][r+1][0]),g=[[],[],[],[]];for(let t=0;t&lt;4;++t){(d=[])[0]=w[s][r][1][t],d[1]=w[s+1][r][1][t],d[2]=w[s][r+1][1][t],d[3]=w[s+1][r+1][1][t],d[4]=w[s][r][2][t]*n,d[5]=w[s+1][r][2][t]*n,d[6]=w[s][r+1][2][t]*o,d[7]=w[s+1][r+1][2][t]*o,d[8]=w[s][r][3][t]*c,d[9]=w[s+1][r][3][t]*x,d[10]=w[s][r+1][3][t]*c,d[11]=w[s+1][r+1][3][t]*x,d[12]=0,d[13]=0,d[14]=0,d[15]=0,u=f(d);for(let e=0;e&lt;9;++e){g[t][e]=[];for(let s=0;s&lt;9;++s)g[t][e][s]=p(u,e/8,s/8),g[t][e][s]&gt;255?g[t][e][s]=255:g[t][e][s]&lt;0&amp;&amp;(g[t][e][s]=0)}}h=[];for(let t=3*s,e=3*s+4;t&lt;e;++t)h.push(this.nodes[t].slice(3*r,3*r+4));l=y(h);for(let s=0;s&lt;8;++s)for(let r=0;r&lt;8;++r)(a=new m(l[s][r],[[[g[0][s][r],g[1][s][r],g[2][s][r],g[3][s][r]],[g[0][s][r+1],g[1][s][r+1],g[2][s][r+1],g[3][s][r+1]]],[[g[0][s+1][r],g[1][s+1][r],g[2][s+1][r],g[3][s+1][r]],[g[0][s+1][r+1],g[1][s+1][r+1],g[2][s+1][r+1],g[3][s+1][r+1]]]])).paint(t,e)}}}transform(t){if(t instanceof x)for(let e=0,s=this.nodes.length;e&lt;s;++e)for(let s=0,r=this.nodes[0].length;s&lt;r;++s)this.nodes[e][s]=this.nodes[e][s].add(t);else if(t instanceof g)for(let e=0,s=this.nodes.length;e&lt;s;++e)for(let s=0,r=this.nodes[0].length;s&lt;r;++s)this.nodes[e][s]=this.nodes[e][s].transform(t)}scale(t){for(let e=0,s=this.nodes.length;e&lt;s;++e)for(let s=0,r=this.nodes[0].length;s&lt;r;++s)this.nodes[e][s]=this.nodes[e][s].scale(t)}}document.querySelectorAll("rect,circle,ellipse,path,text").forEach((r,n)=&gt;{let o=r.getAttribute("id");o||(o="patchjs_shape"+n,r.setAttribute("id",o));const i=r.style.fill.match(/^url\(\s*"?\s*#([^\s"]+)"?\s*\)/),a=r.style.stroke.match(/^url\(\s*"?\s*#([^\s"]+)"?\s*\)/);if(i&amp;&amp;i[1]){const a=document.getElementById(i[1]);if(a&amp;&amp;"meshgradient"===a.nodeName){const i=r.getBBox();let l=document.createElementNS(s,"canvas");d(l,{width:i.width,height:i.height});const c=l.getContext("2d");let u=c.createImageData(i.width,i.height);const f=new b(a);"objectBoundingBox"===a.getAttribute("gradientUnits")&amp;&amp;f.scale(new x(i.width,i.height));const p=a.getAttribute("gradientTransform");null!=p&amp;&amp;f.transform(h(p)),"userSpaceOnUse"===a.getAttribute("gradientUnits")&amp;&amp;f.transform(new x(-i.x,-i.y)),f.paintMesh(u.data,l.width),c.putImageData(u,0,0);const y=document.createElementNS(t,"image");d(y,{width:i.width,height:i.height,x:i.x,y:i.y});let g=l.toDataURL();y.setAttributeNS(e,"xlink:href",g),r.parentNode.insertBefore(y,r),r.style.fill="none";const w=document.createElementNS(t,"use");w.setAttributeNS(e,"xlink:href","#"+o);const m="patchjs_clip"+n,M=document.createElementNS(t,"clipPath");M.setAttribute("id",m),M.appendChild(w),r.parentElement.insertBefore(M,r),y.setAttribute("clip-path","url(#"+m+")"),u=null,l=null,g=null}}if(a&amp;&amp;a[1]){const o=document.getElementById(a[1]);if(o&amp;&amp;"meshgradient"===o.nodeName){const i=parseFloat(r.style.strokeWidth.slice(0,-2))*(parseFloat(r.style.strokeMiterlimit)||parseFloat(r.getAttribute("stroke-miterlimit"))||1),a=r.getBBox(),l=Math.trunc(a.width+i),c=Math.trunc(a.height+i),u=Math.trunc(a.x-i/2),f=Math.trunc(a.y-i/2);let p=document.createElementNS(s,"canvas");d(p,{width:l,height:c});const y=p.getContext("2d");let g=y.createImageData(l,c);const w=new b(o);"objectBoundingBox"===o.getAttribute("gradientUnits")&amp;&amp;w.scale(new x(l,c));const m=o.getAttribute("gradientTransform");null!=m&amp;&amp;w.transform(h(m)),"userSpaceOnUse"===o.getAttribute("gradientUnits")&amp;&amp;w.transform(new x(-u,-f)),w.paintMesh(g.data,p.width),y.putImageData(g,0,0);const M=document.createElementNS(t,"image");d(M,{width:l,height:c,x:0,y:0});let S=p.toDataURL();M.setAttributeNS(e,"xlink:href",S);const k="pattern_clip"+n,A=document.createElementNS(t,"pattern");d(A,{id:k,patternUnits:"userSpaceOnUse",width:l,height:c,x:u,y:f}),A.appendChild(M),o.parentNode.appendChild(A),r.style.stroke="url(#"+k+")",g=null,p=null,S=null}}})}();</script>
</svg>
